<svg xmlns="http://www.w3.org/2000/svg" xmlns:xlink="http://www.w3.org/1999/xlink" width="500" zoomAndPan="magnify" viewBox="0 0 375 112.499997" height="150" preserveAspectRatio="xMidYMid meet" version="1.0"><defs><g/><clipPath id="b34ec951a0"><path d="M 0.128906 4 L 31 4 L 31 60 L 0.128906 60 Z M 0.128906 4 " clip-rule="nonzero"/></clipPath><clipPath id="5b0b25c308"><path d="M 31 0.398438 L 72 0.398438 L 72 60 L 31 60 Z M 31 0.398438 " clip-rule="nonzero"/></clipPath><clipPath id="80cc4f5a21"><path d="M 114 0.398438 L 159 0.398438 L 159 61 L 114 61 Z M 114 0.398438 " clip-rule="nonzero"/></clipPath><clipPath id="21886aea8f"><path d="M 157 0.398438 L 170 0.398438 L 170 60 L 157 60 Z M 157 0.398438 " clip-rule="nonzero"/></clipPath><clipPath id="d7b5fbca0e"><path d="M 213 16 L 258 16 L 258 75.902344 L 213 75.902344 Z M 213 16 " clip-rule="nonzero"/></clipPath><clipPath id="2756e1078b"><path d="M 257 0.398438 L 270 0.398438 L 270 60 L 257 60 Z M 257 0.398438 " clip-rule="nonzero"/></clipPath><clipPath id="8fd5de75b5"><path d="M 306 0.398438 L 351 0.398438 L 351 61 L 306 61 Z M 306 0.398438 " clip-rule="nonzero"/></clipPath><clipPath id="698fb9fcd1"><rect x="0" width="367" y="0" height="76"/></clipPath></defs><g transform="matrix(1, 0, 0, 1, 5, 18)"><g clip-path="url(#698fb9fcd1)"><g clip-path="url(#b34ec951a0)"><g fill="#1b1b1b" fill-opacity="1"><g transform="translate(0.639822, 59.346347)"><g><path d="M 12.03125 -1.9375 C 9.3125 -3.519531 7.515625 -5.625 6.640625 -8.25 C 5.773438 -10.875 5.367188 -13.671875 5.421875 -16.640625 C 5.472656 -18.378906 5.484375 -20.113281 5.453125 -21.84375 C 5.429688 -23.582031 5.421875 -25.289062 5.421875 -26.96875 C 5.421875 -28.164062 5.429688 -29.367188 5.453125 -30.578125 C 5.484375 -31.796875 5.03125 -32.875 4.09375 -33.8125 C 3.59375 -34.351562 2.96875 -34.710938 2.21875 -34.890625 C 1.476562 -35.066406 0.9375 -35.523438 0.59375 -36.265625 C 0.445312 -36.609375 0.347656 -36.953125 0.296875 -37.296875 C 0.242188 -37.648438 0.195312 -38 0.15625 -38.34375 C 0.101562 -39.132812 0.0976562 -39.914062 0.140625 -40.6875 C 0.191406 -41.457031 0.515625 -42.140625 1.109375 -42.734375 C 1.609375 -43.179688 2.191406 -43.460938 2.859375 -43.578125 C 3.523438 -43.703125 4.082031 -44.039062 4.53125 -44.59375 C 5.375 -45.582031 5.796875 -46.671875 5.796875 -47.859375 C 5.796875 -49.046875 5.742188 -50.1875 5.640625 -51.28125 C 5.546875 -52.113281 5.484375 -52.789062 5.453125 -53.3125 C 5.429688 -53.832031 5.816406 -54.316406 6.609375 -54.765625 C 7.203125 -55.109375 7.957031 -55.28125 8.875 -55.28125 C 9.789062 -55.28125 10.707031 -55.226562 11.625 -55.125 C 12.539062 -55.03125 13.320312 -54.9375 13.96875 -54.84375 C 15.257812 -54.695312 15.953125 -54.210938 16.046875 -53.390625 C 16.148438 -52.578125 16.148438 -51.648438 16.046875 -50.609375 C 15.847656 -47.734375 16.367188 -45.601562 17.609375 -44.21875 C 18.203125 -43.570312 18.867188 -43.1875 19.609375 -43.0625 C 20.359375 -42.9375 21.113281 -42.898438 21.875 -42.953125 C 22.644531 -43.003906 23.378906 -43.003906 24.078125 -42.953125 C 24.773438 -42.898438 25.367188 -42.628906 25.859375 -42.140625 C 26.398438 -41.585938 26.632812 -40.753906 26.5625 -39.640625 C 26.488281 -38.523438 26.40625 -37.625 26.3125 -36.9375 C 26.207031 -35.988281 25.796875 -35.316406 25.078125 -34.921875 C 24.359375 -34.523438 23.515625 -34.226562 22.546875 -34.03125 C 21.585938 -33.832031 20.648438 -33.597656 19.734375 -33.328125 C 18.816406 -33.054688 18.109375 -32.597656 17.609375 -31.953125 C 17.066406 -31.253906 16.609375 -30.078125 16.234375 -28.421875 C 15.867188 -26.765625 15.660156 -24.90625 15.609375 -22.84375 C 15.554688 -20.789062 15.691406 -18.820312 16.015625 -16.9375 C 16.335938 -15.0625 16.921875 -13.503906 17.765625 -12.265625 C 18.609375 -11.023438 19.722656 -10.40625 21.109375 -10.40625 C 21.703125 -10.40625 22.332031 -10.523438 23 -10.765625 C 23.664062 -11.015625 24.320312 -11.226562 24.96875 -11.40625 C 25.613281 -11.582031 26.179688 -11.546875 26.671875 -11.296875 C 27.367188 -11.046875 27.960938 -10.390625 28.453125 -9.328125 C 28.953125 -8.265625 29.351562 -7.4375 29.65625 -6.84375 C 29.945312 -6.289062 30.144531 -5.742188 30.25 -5.203125 C 30.289062 -4.460938 29.988281 -3.878906 29.34375 -3.453125 C 28.707031 -3.035156 28.113281 -2.675781 27.5625 -2.375 C 25.132812 -0.988281 22.554688 -0.207031 19.828125 -0.03125 C 17.109375 0.132812 14.507812 -0.5 12.03125 -1.9375 Z M 12.03125 -1.9375 "/></g></g></g></g><g clip-path="url(#5b0b25c308)"><g fill="#1b1b1b" fill-opacity="1"><g transform="translate(31.106374, 59.346347)"><g><path d="M 39.3125 -26.90625 C 39.601562 -24.425781 39.738281 -21.921875 39.71875 -19.390625 C 39.695312 -16.867188 39.6875 -14.539062 39.6875 -12.40625 C 39.6875 -11.914062 39.734375 -11.035156 39.828125 -9.765625 C 39.929688 -8.503906 39.984375 -7.179688 39.984375 -5.796875 C 39.984375 -4.410156 39.867188 -3.207031 39.640625 -2.1875 C 39.421875 -1.175781 39.015625 -0.617188 38.421875 -0.515625 C 37.628906 -0.421875 36.597656 -0.273438 35.328125 -0.078125 C 34.066406 0.117188 32.851562 0.164062 31.6875 0.0625 C 30.53125 -0.03125 29.65625 -0.445312 29.0625 -1.1875 C 28.363281 -2.082031 28.085938 -3.207031 28.234375 -4.5625 C 28.390625 -5.925781 28.441406 -7.101562 28.390625 -8.09375 C 28.390625 -10.875 28.375 -13.625 28.34375 -16.34375 C 28.320312 -19.070312 28.335938 -21.796875 28.390625 -24.515625 C 28.390625 -27.097656 27.769531 -29.15625 26.53125 -30.6875 C 25.289062 -32.226562 23.503906 -33.144531 21.171875 -33.4375 C 21.023438 -33.488281 20.878906 -33.515625 20.734375 -33.515625 C 20.585938 -33.515625 20.4375 -33.515625 20.28125 -33.515625 C 18.84375 -33.515625 17.492188 -33.128906 16.234375 -32.359375 C 14.972656 -31.597656 13.929688 -30.582031 13.109375 -29.3125 C 12.296875 -28.050781 11.816406 -26.65625 11.671875 -25.125 C 11.515625 -23.289062 11.425781 -21.46875 11.40625 -19.65625 C 11.382812 -17.84375 11.394531 -16.046875 11.4375 -14.265625 C 11.4375 -12.285156 11.425781 -10.28125 11.40625 -8.25 C 11.382812 -6.21875 11.375 -4.1875 11.375 -2.15625 C 11.375 -1.414062 10.988281 -0.894531 10.21875 -0.59375 C 9.445312 -0.300781 8.503906 -0.15625 7.390625 -0.15625 C 6.273438 -0.15625 5.207031 -0.203125 4.1875 -0.296875 C 3.175781 -0.398438 2.398438 -0.453125 1.859375 -0.453125 C 1.117188 -0.453125 0.609375 -0.804688 0.328125 -1.515625 C 0.0546875 -2.234375 -0.0507812 -3.085938 0 -4.078125 C 0.0507812 -5.078125 0.140625 -6.035156 0.265625 -6.953125 C 0.390625 -7.867188 0.453125 -8.570312 0.453125 -9.0625 C 0.492188 -10.5 0.523438 -11.9375 0.546875 -13.375 C 0.578125 -14.8125 0.59375 -16.25 0.59375 -17.6875 C 0.59375 -23.875 0.53125 -30.0625 0.40625 -36.25 C 0.28125 -42.445312 0.21875 -48.617188 0.21875 -54.765625 C 0.21875 -55.554688 0.316406 -56.285156 0.515625 -56.953125 C 0.710938 -57.628906 1.257812 -58.066406 2.15625 -58.265625 C 3.25 -58.503906 4.390625 -58.5625 5.578125 -58.4375 C 6.765625 -58.320312 7.898438 -58.238281 8.984375 -58.1875 C 10.328125 -58.132812 11.21875 -57.660156 11.65625 -56.765625 C 12.101562 -55.878906 12.289062 -54.78125 12.21875 -53.46875 C 12.144531 -52.15625 11.984375 -50.863281 11.734375 -49.59375 C 11.492188 -48.332031 11.375 -47.304688 11.375 -46.515625 L 11.375 -42.734375 C 11.375 -42.179688 11.59375 -41.707031 12.03125 -41.3125 C 12.332031 -41.019531 12.753906 -40.875 13.296875 -40.875 C 13.347656 -40.875 13.382812 -40.875 13.40625 -40.875 C 13.4375 -40.875 13.476562 -40.875 13.53125 -40.875 C 14.320312 -40.96875 15.078125 -41.078125 15.796875 -41.203125 C 16.515625 -41.328125 17.191406 -41.441406 17.828125 -41.546875 C 19.117188 -41.785156 20.359375 -41.976562 21.546875 -42.125 C 22.734375 -42.28125 23.875 -42.359375 24.96875 -42.359375 C 28.332031 -42.359375 30.992188 -41.640625 32.953125 -40.203125 C 34.910156 -38.765625 36.375 -36.867188 37.34375 -34.515625 C 38.3125 -32.160156 38.96875 -29.625 39.3125 -26.90625 Z M 39.3125 -26.90625 "/></g></g></g></g><g fill="#1b1b1b" fill-opacity="1"><g transform="translate(71.233212, 59.346347)"><g><path d="M 41.6875 -18.875 C 41.09375 -18.375 40.210938 -18.035156 39.046875 -17.859375 C 37.890625 -17.691406 36.648438 -17.609375 35.328125 -17.609375 C 34.015625 -17.609375 32.789062 -17.632812 31.65625 -17.6875 C 30.519531 -17.738281 29.65625 -17.765625 29.0625 -17.765625 C 26.476562 -17.710938 23.921875 -17.671875 21.390625 -17.640625 C 18.867188 -17.617188 16.320312 -17.609375 13.75 -17.609375 C 12.957031 -17.609375 12.445312 -17.359375 12.21875 -16.859375 C 12 -16.367188 11.972656 -15.8125 12.140625 -15.1875 C 12.316406 -14.570312 12.554688 -14.039062 12.859375 -13.59375 C 13.898438 -12.257812 15.195312 -11.179688 16.75 -10.359375 C 18.3125 -9.546875 19.9375 -9.039062 21.625 -8.84375 C 23.507812 -8.644531 25.082031 -8.90625 26.34375 -9.625 C 27.601562 -10.34375 29.023438 -11.097656 30.609375 -11.890625 C 31.359375 -12.285156 31.867188 -12.53125 32.140625 -12.625 C 32.410156 -12.726562 32.867188 -12.507812 33.515625 -11.96875 C 34.210938 -11.414062 34.867188 -10.671875 35.484375 -9.734375 C 36.097656 -8.796875 36.707031 -7.976562 37.3125 -7.28125 C 37.945312 -6.4375 37.914062 -5.644531 37.21875 -4.90625 C 36.53125 -4.164062 35.46875 -3.484375 34.03125 -2.859375 C 32.59375 -2.242188 31.03125 -1.710938 29.34375 -1.265625 C 27.664062 -0.816406 26.144531 -0.46875 24.78125 -0.21875 C 23.414062 0.03125 22.488281 0.15625 22 0.15625 C 18.675781 0.15625 15.613281 -0.5 12.8125 -1.8125 C 10.019531 -3.132812 7.628906 -4.921875 5.640625 -7.171875 C 3.660156 -9.421875 2.175781 -11.957031 1.1875 -14.78125 C 0.195312 -17.613281 -0.1875 -20.578125 0.03125 -23.671875 C 0.257812 -26.765625 1.210938 -29.773438 2.890625 -32.703125 C 4.179688 -34.972656 5.90625 -36.898438 8.0625 -38.484375 C 10.21875 -40.078125 12.59375 -41.253906 15.1875 -42.015625 C 17.789062 -42.785156 20.453125 -43.132812 23.171875 -43.0625 C 25.898438 -42.988281 28.488281 -42.441406 30.9375 -41.421875 C 33.394531 -40.410156 35.539062 -38.890625 37.375 -36.859375 C 38.21875 -35.921875 39.023438 -34.742188 39.796875 -33.328125 C 40.566406 -31.921875 41.222656 -30.398438 41.765625 -28.765625 C 42.304688 -27.128906 42.640625 -25.53125 42.765625 -23.96875 C 42.890625 -22.40625 42.726562 -20.976562 42.28125 -19.6875 C 42.1875 -19.394531 41.988281 -19.125 41.6875 -18.875 Z M 30.46875 -26.609375 C 30.613281 -26.953125 30.660156 -27.320312 30.609375 -27.71875 C 30.566406 -28.3125 30.296875 -28.878906 29.796875 -29.421875 C 28.460938 -31.304688 26.726562 -32.691406 24.59375 -33.578125 C 22.46875 -34.472656 20.289062 -34.425781 18.0625 -33.4375 C 17.070312 -32.988281 16.140625 -32.414062 15.265625 -31.71875 C 14.398438 -31.03125 13.597656 -30.289062 12.859375 -29.5 C 12.660156 -29.300781 12.460938 -29.078125 12.265625 -28.828125 C 12.066406 -28.585938 11.914062 -28.316406 11.8125 -28.015625 C 11.613281 -27.421875 11.710938 -26.875 12.109375 -26.375 C 12.503906 -25.882812 13 -25.640625 13.59375 -25.640625 L 28.765625 -25.640625 C 29.597656 -25.640625 30.164062 -25.960938 30.46875 -26.609375 Z M 30.46875 -26.609375 "/></g></g></g><g clip-path="url(#80cc4f5a21)"><g fill="#1b1b1b" fill-opacity="1"><g transform="translate(114.183823, 59.346347)"><g><path d="M 0.296875 -2.75 C 0.492188 -7.601562 0.601562 -12.457031 0.625 -17.3125 C 0.65625 -22.164062 0.617188 -27.019531 0.515625 -31.875 C 0.515625 -34.601562 0.488281 -37.34375 0.4375 -40.09375 C 0.394531 -42.84375 0.375 -45.578125 0.375 -48.296875 C 0.375 -49.046875 0.3125 -49.976562 0.1875 -51.09375 C 0.0625 -52.207031 0.0234375 -53.332031 0.078125 -54.46875 C 0.128906 -55.613281 0.351562 -56.566406 0.75 -57.328125 C 1.144531 -58.097656 1.859375 -58.484375 2.890625 -58.484375 C 2.992188 -58.484375 3.070312 -58.484375 3.125 -58.484375 C 3.175781 -58.484375 3.222656 -58.484375 3.265625 -58.484375 C 4.015625 -58.429688 4.707031 -58.40625 5.34375 -58.40625 C 5.988281 -58.40625 6.5625 -58.378906 7.0625 -58.328125 C 7.507812 -58.328125 8.015625 -58.351562 8.578125 -58.40625 C 9.148438 -58.457031 9.671875 -58.40625 10.140625 -58.25 C 10.609375 -58.101562 10.867188 -57.734375 10.921875 -57.140625 C 11.171875 -54.910156 11.207031 -52.691406 11.03125 -50.484375 C 10.863281 -48.285156 10.78125 -46.046875 10.78125 -43.765625 C 10.78125 -42.972656 10.960938 -42.242188 11.328125 -41.578125 C 11.703125 -40.910156 12.359375 -40.578125 13.296875 -40.578125 C 13.546875 -40.578125 13.796875 -40.613281 14.046875 -40.6875 C 14.296875 -40.757812 14.519531 -40.820312 14.71875 -40.875 C 14.8125 -40.875 14.867188 -40.882812 14.890625 -40.90625 C 14.921875 -40.9375 14.960938 -40.953125 15.015625 -40.953125 C 15.304688 -40.992188 15.585938 -41.0625 15.859375 -41.15625 C 16.140625 -41.257812 16.425781 -41.335938 16.71875 -41.390625 C 16.96875 -41.441406 17.210938 -41.503906 17.453125 -41.578125 C 17.703125 -41.648438 17.953125 -41.710938 18.203125 -41.765625 C 22.117188 -42.609375 25.882812 -42.65625 29.5 -41.90625 C 33.113281 -41.164062 36.234375 -39.113281 38.859375 -35.75 C 41.046875 -32.96875 42.457031 -29.890625 43.09375 -26.515625 C 43.738281 -23.148438 43.703125 -19.820312 42.984375 -16.53125 C 42.265625 -13.238281 40.9375 -10.265625 39 -7.609375 C 37.070312 -4.960938 34.625 -2.921875 31.65625 -1.484375 C 28.6875 -0.046875 25.289062 0.445312 21.46875 0 C 20.082031 -0.144531 18.742188 -0.414062 17.453125 -0.8125 C 16.171875 -1.207031 14.835938 -1.40625 13.453125 -1.40625 C 12.859375 -1.40625 12.273438 -1.367188 11.703125 -1.296875 C 11.128906 -1.222656 10.570312 -1.0625 10.03125 -0.8125 C 9.132812 -0.46875 7.921875 -0.296875 6.390625 -0.296875 C 6.140625 -0.296875 5.863281 -0.296875 5.5625 -0.296875 C 5.269531 -0.296875 5 -0.296875 4.75 -0.296875 C 4.113281 -0.347656 3.4375 -0.335938 2.71875 -0.265625 C 2 -0.191406 1.414062 -0.273438 0.96875 -0.515625 C 0.519531 -0.765625 0.296875 -1.359375 0.296875 -2.296875 C 0.296875 -2.398438 0.296875 -2.488281 0.296875 -2.5625 C 0.296875 -2.632812 0.296875 -2.695312 0.296875 -2.75 Z M 14.640625 -30.015625 C 12.503906 -27.585938 11.4375 -24.640625 11.4375 -21.171875 C 11.4375 -19.097656 11.957031 -17.09375 13 -15.15625 C 14.039062 -13.226562 15.390625 -11.644531 17.046875 -10.40625 C 18.710938 -9.164062 20.410156 -8.546875 22.140625 -8.546875 L 22.296875 -8.546875 C 25.367188 -8.640625 28.019531 -9.953125 30.25 -12.484375 C 32.425781 -15.054688 33.515625 -18.03125 33.515625 -21.40625 C 33.460938 -23.582031 32.925781 -25.609375 31.90625 -27.484375 C 30.894531 -29.367188 29.570312 -30.894531 27.9375 -32.0625 C 26.300781 -33.226562 24.519531 -33.8125 22.59375 -33.8125 C 22.59375 -33.8125 22.578125 -33.8125 22.546875 -33.8125 C 22.523438 -33.8125 22.515625 -33.8125 22.515625 -33.8125 C 21.078125 -33.8125 19.664062 -33.488281 18.28125 -32.84375 C 16.894531 -32.195312 15.679688 -31.253906 14.640625 -30.015625 Z M 14.640625 -30.015625 "/></g></g></g></g><g clip-path="url(#21886aea8f)"><g fill="#1b1b1b" fill-opacity="1"><g transform="translate(157.877539, 59.346347)"><g><path d="M 11.078125 -1.046875 C 10.722656 -0.597656 10.222656 -0.347656 9.578125 -0.296875 C 8.941406 -0.242188 8.273438 -0.171875 7.578125 -0.078125 C 6.929688 -0.0234375 6.175781 0.0234375 5.3125 0.078125 C 4.445312 0.128906 3.628906 0.046875 2.859375 -0.171875 C 2.085938 -0.398438 1.503906 -0.863281 1.109375 -1.5625 C 0.515625 -2.65625 0.164062 -3.859375 0.0625 -5.171875 C -0.03125 -6.484375 -0.00390625 -7.816406 0.140625 -9.171875 C 0.296875 -10.535156 0.375 -11.8125 0.375 -13 C 0.425781 -15.332031 0.460938 -17.648438 0.484375 -19.953125 C 0.503906 -22.253906 0.539062 -24.570312 0.59375 -26.90625 C 0.644531 -31.507812 0.65625 -36.125 0.625 -40.75 C 0.601562 -45.382812 0.546875 -50.007812 0.453125 -54.625 C 0.453125 -55.90625 0.722656 -56.832031 1.265625 -57.40625 C 1.804688 -57.976562 2.519531 -58.3125 3.40625 -58.40625 C 4.300781 -58.507812 5.269531 -58.484375 6.3125 -58.328125 C 7.351562 -58.179688 8.34375 -58.0625 9.28125 -57.96875 C 10.320312 -57.863281 11.003906 -57.300781 11.328125 -56.28125 C 11.648438 -55.269531 11.796875 -54.179688 11.765625 -53.015625 C 11.742188 -51.859375 11.710938 -50.929688 11.671875 -50.234375 C 11.566406 -47.953125 11.5 -45.644531 11.46875 -43.3125 C 11.445312 -40.988281 11.4375 -38.664062 11.4375 -36.34375 C 11.4375 -30.6875 11.4375 -25.035156 11.4375 -19.390625 C 11.4375 -13.742188 11.4375 -8.097656 11.4375 -2.453125 C 11.4375 -1.859375 11.316406 -1.390625 11.078125 -1.046875 Z M 11.078125 -1.046875 "/></g></g></g></g><g fill="#1b1b1b" fill-opacity="1"><g transform="translate(169.840927, 59.346347)"><g><path d="M 0.078125 -21.546875 C 0.0234375 -24.328125 0.566406 -27.085938 1.703125 -29.828125 C 2.847656 -32.578125 4.4375 -34.992188 6.46875 -37.078125 C 8.394531 -39.054688 10.597656 -40.566406 13.078125 -41.609375 C 15.554688 -42.648438 18.109375 -43.171875 20.734375 -43.171875 C 20.984375 -43.171875 21.242188 -43.171875 21.515625 -43.171875 C 21.785156 -43.171875 22.046875 -43.171875 22.296875 -43.171875 C 22.296875 -43.171875 22.304688 -43.171875 22.328125 -43.171875 C 22.359375 -43.171875 22.375 -43.171875 22.375 -43.171875 C 26.675781 -43.171875 30.472656 -42.28125 33.765625 -40.5 C 37.066406 -38.71875 39.65625 -36.238281 41.53125 -33.0625 C 43.414062 -29.894531 44.359375 -26.234375 44.359375 -22.078125 C 44.359375 -15.578125 42.328125 -10.300781 38.265625 -6.25 C 36.285156 -4.257812 33.921875 -2.734375 31.171875 -1.671875 C 28.421875 -0.609375 25.4375 -0.078125 22.21875 -0.078125 C 19.144531 -0.078125 16.28125 -0.632812 13.625 -1.75 C 10.976562 -2.863281 8.648438 -4.394531 6.640625 -6.34375 C 4.640625 -8.300781 3.054688 -10.582031 1.890625 -13.1875 C 0.734375 -15.789062 0.128906 -18.578125 0.078125 -21.546875 Z M 22 -34.328125 C 20.257812 -34.328125 18.570312 -33.769531 16.9375 -32.65625 C 15.300781 -31.539062 13.953125 -30.101562 12.890625 -28.34375 C 11.828125 -26.59375 11.269531 -24.75 11.21875 -22.8125 C 11.164062 -20.6875 11.507812 -18.628906 12.25 -16.640625 C 13 -14.660156 14.140625 -13 15.671875 -11.65625 C 17.210938 -10.320312 19.125 -9.53125 21.40625 -9.28125 C 23.925781 -9.039062 26.050781 -9.4375 27.78125 -10.46875 C 29.519531 -11.507812 30.859375 -12.9375 31.796875 -14.75 C 32.742188 -16.5625 33.265625 -18.539062 33.359375 -20.6875 C 33.460938 -22.84375 33.140625 -24.910156 32.390625 -26.890625 C 31.648438 -28.878906 30.460938 -30.550781 28.828125 -31.90625 C 27.191406 -33.269531 25.113281 -34.078125 22.59375 -34.328125 C 22.488281 -34.328125 22.382812 -34.328125 22.28125 -34.328125 C 22.1875 -34.328125 22.09375 -34.328125 22 -34.328125 Z M 22 -34.328125 "/></g></g></g><g clip-path="url(#d7b5fbca0e)"><g fill="#1b1b1b" fill-opacity="1"><g transform="translate(214.352052, 59.346347)"><g><path d="M 42.953125 -32.03125 C 42.953125 -28.65625 42.972656 -25.257812 43.015625 -21.84375 C 43.066406 -18.425781 43.046875 -15.035156 42.953125 -11.671875 C 42.898438 -9.785156 42.875 -7.828125 42.875 -5.796875 C 42.875 -3.765625 42.722656 -1.757812 42.421875 0.21875 C 42.128906 2.207031 41.515625 4.066406 40.578125 5.796875 C 39.335938 8.078125 37.703125 9.972656 35.671875 11.484375 C 33.640625 12.992188 31.394531 14.117188 28.9375 14.859375 C 26.488281 15.609375 24 15.984375 21.46875 15.984375 C 21.269531 15.984375 21.070312 15.984375 20.875 15.984375 C 20.675781 15.984375 20.476562 15.984375 20.28125 15.984375 C 18.644531 15.878906 17.019531 15.738281 15.40625 15.5625 C 13.800781 15.394531 12.207031 15.0625 10.625 14.5625 C 9.976562 14.363281 9.207031 14.101562 8.3125 13.78125 C 7.425781 13.457031 6.585938 13.070312 5.796875 12.625 C 5.003906 12.1875 4.445312 11.628906 4.125 10.953125 C 3.800781 10.285156 3.863281 9.484375 4.3125 8.546875 C 4.65625 7.847656 5 7.140625 5.34375 6.421875 C 5.695312 5.703125 6.046875 5 6.390625 4.3125 C 6.785156 3.570312 7.304688 3.1875 7.953125 3.15625 C 8.597656 3.132812 9.316406 3.304688 10.109375 3.671875 C 10.898438 4.046875 11.664062 4.457031 12.40625 4.90625 C 13.15625 5.351562 13.773438 5.648438 14.265625 5.796875 C 15.304688 6.140625 16.382812 6.410156 17.5 6.609375 C 18.613281 6.804688 19.71875 6.90625 20.8125 6.90625 C 23.53125 6.90625 25.953125 6.195312 28.078125 4.78125 C 30.210938 3.375 31.753906 1.382812 32.703125 -1.1875 C 32.796875 -1.4375 32.867188 -1.671875 32.921875 -1.890625 C 32.972656 -2.117188 32.972656 -2.332031 32.921875 -2.53125 C 32.867188 -3.375 32.546875 -3.867188 31.953125 -4.015625 C 31.359375 -4.160156 30.675781 -4.132812 29.90625 -3.9375 C 29.144531 -3.738281 28.40625 -3.476562 27.6875 -3.15625 C 26.96875 -2.832031 26.410156 -2.625 26.015625 -2.53125 C 24.867188 -2.175781 23.703125 -1.890625 22.515625 -1.671875 C 21.328125 -1.453125 20.140625 -1.34375 18.953125 -1.34375 C 15.828125 -1.34375 13.050781 -2.132812 10.625 -3.71875 C 8.644531 -5 6.882812 -6.457031 5.34375 -8.09375 C 3.8125 -9.726562 2.695312 -11.316406 2 -12.859375 C 0.0703125 -17.367188 -0.46875 -21.851562 0.375 -26.3125 C 1.21875 -30.769531 3.375 -34.65625 6.84375 -37.96875 C 10.300781 -41.34375 14.285156 -43.03125 18.796875 -43.03125 C 22.210938 -43.03125 25.609375 -42.085938 28.984375 -40.203125 C 29.234375 -40.003906 29.554688 -39.90625 29.953125 -39.90625 C 30.546875 -39.90625 31.039062 -40.15625 31.4375 -40.65625 C 31.6875 -40.945312 32.289062 -41.253906 33.25 -41.578125 C 34.21875 -41.898438 35.359375 -42.179688 36.671875 -42.421875 C 37.984375 -42.671875 39.234375 -42.796875 40.421875 -42.796875 C 41.171875 -42.796875 41.691406 -42.742188 41.984375 -42.640625 C 42.285156 -42.546875 42.535156 -42.15625 42.734375 -41.46875 C 42.972656 -40.675781 43.039062 -39.742188 42.9375 -38.671875 C 42.84375 -37.609375 42.820312 -36.65625 42.875 -35.8125 C 42.875 -35.175781 42.875 -34.546875 42.875 -33.921875 C 42.875 -33.304688 42.898438 -32.675781 42.953125 -32.03125 Z M 29.796875 -14.125 C 31.828125 -16.550781 32.84375 -19.398438 32.84375 -22.671875 C 32.84375 -24.847656 32.359375 -26.800781 31.390625 -28.53125 C 30.429688 -30.269531 29.144531 -31.632812 27.53125 -32.625 C 25.925781 -33.613281 24.109375 -34.109375 22.078125 -34.109375 C 20.679688 -34.054688 19.335938 -33.757812 18.046875 -33.21875 C 16.765625 -32.675781 15.628906 -31.882812 14.640625 -30.84375 C 12.304688 -28.457031 11.191406 -25.507812 11.296875 -22 C 11.347656 -19.96875 11.890625 -18.054688 12.921875 -16.265625 C 13.960938 -14.484375 15.289062 -13.046875 16.90625 -11.953125 C 18.519531 -10.867188 20.242188 -10.328125 22.078125 -10.328125 C 22.078125 -10.328125 22.085938 -10.328125 22.109375 -10.328125 C 22.128906 -10.328125 22.140625 -10.328125 22.140625 -10.328125 C 25.117188 -10.328125 27.671875 -11.59375 29.796875 -14.125 Z M 29.796875 -14.125 "/></g></g></g></g><g clip-path="url(#2756e1078b)"><g fill="#1b1b1b" fill-opacity="1"><g transform="translate(257.599905, 59.346347)"><g><path d="M 11.078125 -1.046875 C 10.722656 -0.597656 10.222656 -0.347656 9.578125 -0.296875 C 8.941406 -0.242188 8.273438 -0.171875 7.578125 -0.078125 C 6.929688 -0.0234375 6.175781 0.0234375 5.3125 0.078125 C 4.445312 0.128906 3.628906 0.046875 2.859375 -0.171875 C 2.085938 -0.398438 1.503906 -0.863281 1.109375 -1.5625 C 0.515625 -2.65625 0.164062 -3.859375 0.0625 -5.171875 C -0.03125 -6.484375 -0.00390625 -7.816406 0.140625 -9.171875 C 0.296875 -10.535156 0.375 -11.8125 0.375 -13 C 0.425781 -15.332031 0.460938 -17.648438 0.484375 -19.953125 C 0.503906 -22.253906 0.539062 -24.570312 0.59375 -26.90625 C 0.644531 -31.507812 0.65625 -36.125 0.625 -40.75 C 0.601562 -45.382812 0.546875 -50.007812 0.453125 -54.625 C 0.453125 -55.90625 0.722656 -56.832031 1.265625 -57.40625 C 1.804688 -57.976562 2.519531 -58.3125 3.40625 -58.40625 C 4.300781 -58.507812 5.269531 -58.484375 6.3125 -58.328125 C 7.351562 -58.179688 8.34375 -58.0625 9.28125 -57.96875 C 10.320312 -57.863281 11.003906 -57.300781 11.328125 -56.28125 C 11.648438 -55.269531 11.796875 -54.179688 11.765625 -53.015625 C 11.742188 -51.859375 11.710938 -50.929688 11.671875 -50.234375 C 11.566406 -47.953125 11.5 -45.644531 11.46875 -43.3125 C 11.445312 -40.988281 11.4375 -38.664062 11.4375 -36.34375 C 11.4375 -30.6875 11.4375 -25.035156 11.4375 -19.390625 C 11.4375 -13.742188 11.4375 -8.097656 11.4375 -2.453125 C 11.4375 -1.859375 11.316406 -1.390625 11.078125 -1.046875 Z M 11.078125 -1.046875 "/></g></g></g></g><g fill="#1b1b1b" fill-opacity="1"><g transform="translate(269.563292, 59.346347)"><g><path d="M 36.34375 -1.859375 C 35.945312 -1.359375 35.328125 -1.085938 34.484375 -1.046875 C 33.691406 -1.046875 32.921875 -1.203125 32.171875 -1.515625 C 31.429688 -1.835938 30.703125 -2.160156 29.984375 -2.484375 C 29.265625 -2.804688 28.484375 -2.96875 27.640625 -2.96875 C 27.097656 -2.96875 26.550781 -2.929688 26 -2.859375 C 25.457031 -2.785156 24.960938 -2.695312 24.515625 -2.59375 L 24.15625 -2.53125 C 22.71875 -2.28125 21.316406 -1.957031 19.953125 -1.5625 C 18.585938 -1.164062 17.3125 -0.769531 16.125 -0.375 C 15.582031 -0.226562 15.023438 -0.101562 14.453125 0 C 13.878906 0.101562 13.296875 0.15625 12.703125 0.15625 C 9.085938 0.15625 6.039062 -1.28125 3.5625 -4.15625 C 0.738281 -7.375 -0.375 -11.335938 0.21875 -16.046875 C 0.46875 -17.929688 1.125 -19.613281 2.1875 -21.09375 C 3.257812 -22.582031 4.613281 -23.722656 6.25 -24.515625 C 7.082031 -24.921875 7.96875 -25.207031 8.90625 -25.375 C 9.851562 -25.550781 10.820312 -25.710938 11.8125 -25.859375 C 12.0625 -25.859375 12.285156 -25.867188 12.484375 -25.890625 C 12.679688 -25.921875 12.878906 -25.960938 13.078125 -26.015625 L 22.8125 -27.34375 C 24.101562 -27.539062 24.910156 -27.925781 25.234375 -28.5 C 25.554688 -29.070312 25.738281 -29.53125 25.78125 -29.875 C 25.882812 -30.71875 25.625 -31.484375 25 -32.171875 C 24.382812 -32.867188 23.65625 -33.34375 22.8125 -33.59375 C 21.28125 -34.1875 19.695312 -34.484375 18.0625 -34.484375 L 17.828125 -34.484375 C 16.296875 -34.429688 14.835938 -34.207031 13.453125 -33.8125 C 12.066406 -33.414062 10.726562 -32.945312 9.4375 -32.40625 C 9.039062 -32.207031 8.570312 -32.109375 8.03125 -32.109375 C 6.9375 -32.109375 5.859375 -32.46875 4.796875 -33.1875 C 3.734375 -33.90625 2.976562 -34.757812 2.53125 -35.75 C 2.332031 -36.144531 2.242188 -36.476562 2.265625 -36.75 C 2.285156 -37.019531 2.320312 -37.226562 2.375 -37.375 C 2.675781 -38.019531 3.257812 -38.601562 4.125 -39.125 C 4.988281 -39.644531 5.90625 -40.085938 6.875 -40.453125 C 7.84375 -40.828125 8.644531 -41.113281 9.28125 -41.3125 C 12.851562 -42.457031 16.445312 -43.03125 20.0625 -43.03125 C 20.40625 -43.03125 20.75 -43.03125 21.09375 -43.03125 C 21.445312 -43.03125 21.796875 -43.003906 22.140625 -42.953125 C 23.878906 -42.847656 25.800781 -42.507812 27.90625 -41.9375 C 30.007812 -41.375 31.804688 -40.300781 33.296875 -38.71875 C 35.023438 -36.832031 36.0625 -34.945312 36.40625 -33.0625 C 36.800781 -30.9375 36.9375 -28.722656 36.8125 -26.421875 C 36.695312 -24.117188 36.660156 -21.875 36.703125 -19.6875 C 36.703125 -17.457031 36.703125 -15.21875 36.703125 -12.96875 C 36.703125 -10.71875 36.726562 -8.5 36.78125 -6.3125 C 36.78125 -5.570312 36.816406 -4.78125 36.890625 -3.9375 C 36.960938 -3.09375 36.78125 -2.398438 36.34375 -1.859375 Z M 25.5625 -14.640625 C 25.957031 -15.429688 26.082031 -16.097656 25.9375 -16.640625 C 25.789062 -17.191406 25.640625 -17.566406 25.484375 -17.765625 C 25.285156 -18.054688 24.972656 -18.335938 24.546875 -18.609375 C 24.128906 -18.890625 23.550781 -19.050781 22.8125 -19.09375 L 22.21875 -19.171875 C 21.769531 -19.222656 21.3125 -19.25 20.84375 -19.25 C 20.375 -19.25 19.867188 -19.25 19.328125 -19.25 C 18.484375 -19.25 17.460938 -19.160156 16.265625 -18.984375 C 15.078125 -18.816406 13.941406 -18.359375 12.859375 -17.609375 C 12.109375 -17.015625 11.632812 -16.394531 11.4375 -15.75 C 11.238281 -15.207031 11.21875 -14.515625 11.375 -13.671875 C 11.71875 -12.140625 12.382812 -10.953125 13.375 -10.109375 C 14.363281 -9.265625 15.550781 -8.84375 16.9375 -8.84375 C 18.675781 -8.84375 20.382812 -9.410156 22.0625 -10.546875 C 23.75 -11.691406 24.914062 -13.054688 25.5625 -14.640625 Z M 25.5625 -14.640625 "/></g></g></g><g clip-path="url(#8fd5de75b5)"><g fill="#1b1b1b" fill-opacity="1"><g transform="translate(306.643419, 59.346347)"><g><path d="M 0.296875 -2.75 C 0.492188 -7.601562 0.601562 -12.457031 0.625 -17.3125 C 0.65625 -22.164062 0.617188 -27.019531 0.515625 -31.875 C 0.515625 -34.601562 0.488281 -37.34375 0.4375 -40.09375 C 0.394531 -42.84375 0.375 -45.578125 0.375 -48.296875 C 0.375 -49.046875 0.3125 -49.976562 0.1875 -51.09375 C 0.0625 -52.207031 0.0234375 -53.332031 0.078125 -54.46875 C 0.128906 -55.613281 0.351562 -56.566406 0.75 -57.328125 C 1.144531 -58.097656 1.859375 -58.484375 2.890625 -58.484375 C 2.992188 -58.484375 3.070312 -58.484375 3.125 -58.484375 C 3.175781 -58.484375 3.222656 -58.484375 3.265625 -58.484375 C 4.015625 -58.429688 4.707031 -58.40625 5.34375 -58.40625 C 5.988281 -58.40625 6.5625 -58.378906 7.0625 -58.328125 C 7.507812 -58.328125 8.015625 -58.351562 8.578125 -58.40625 C 9.148438 -58.457031 9.671875 -58.40625 10.140625 -58.25 C 10.609375 -58.101562 10.867188 -57.734375 10.921875 -57.140625 C 11.171875 -54.910156 11.207031 -52.691406 11.03125 -50.484375 C 10.863281 -48.285156 10.78125 -46.046875 10.78125 -43.765625 C 10.78125 -42.972656 10.960938 -42.242188 11.328125 -41.578125 C 11.703125 -40.910156 12.359375 -40.578125 13.296875 -40.578125 C 13.546875 -40.578125 13.796875 -40.613281 14.046875 -40.6875 C 14.296875 -40.757812 14.519531 -40.820312 14.71875 -40.875 C 14.8125 -40.875 14.867188 -40.882812 14.890625 -40.90625 C 14.921875 -40.9375 14.960938 -40.953125 15.015625 -40.953125 C 15.304688 -40.992188 15.585938 -41.0625 15.859375 -41.15625 C 16.140625 -41.257812 16.425781 -41.335938 16.71875 -41.390625 C 16.96875 -41.441406 17.210938 -41.503906 17.453125 -41.578125 C 17.703125 -41.648438 17.953125 -41.710938 18.203125 -41.765625 C 22.117188 -42.609375 25.882812 -42.65625 29.5 -41.90625 C 33.113281 -41.164062 36.234375 -39.113281 38.859375 -35.75 C 41.046875 -32.96875 42.457031 -29.890625 43.09375 -26.515625 C 43.738281 -23.148438 43.703125 -19.820312 42.984375 -16.53125 C 42.265625 -13.238281 40.9375 -10.265625 39 -7.609375 C 37.070312 -4.960938 34.625 -2.921875 31.65625 -1.484375 C 28.6875 -0.046875 25.289062 0.445312 21.46875 0 C 20.082031 -0.144531 18.742188 -0.414062 17.453125 -0.8125 C 16.171875 -1.207031 14.835938 -1.40625 13.453125 -1.40625 C 12.859375 -1.40625 12.273438 -1.367188 11.703125 -1.296875 C 11.128906 -1.222656 10.570312 -1.0625 10.03125 -0.8125 C 9.132812 -0.46875 7.921875 -0.296875 6.390625 -0.296875 C 6.140625 -0.296875 5.863281 -0.296875 5.5625 -0.296875 C 5.269531 -0.296875 5 -0.296875 4.75 -0.296875 C 4.113281 -0.347656 3.4375 -0.335938 2.71875 -0.265625 C 2 -0.191406 1.414062 -0.273438 0.96875 -0.515625 C 0.519531 -0.765625 0.296875 -1.359375 0.296875 -2.296875 C 0.296875 -2.398438 0.296875 -2.488281 0.296875 -2.5625 C 0.296875 -2.632812 0.296875 -2.695312 0.296875 -2.75 Z M 14.640625 -30.015625 C 12.503906 -27.585938 11.4375 -24.640625 11.4375 -21.171875 C 11.4375 -19.097656 11.957031 -17.09375 13 -15.15625 C 14.039062 -13.226562 15.390625 -11.644531 17.046875 -10.40625 C 18.710938 -9.164062 20.410156 -8.546875 22.140625 -8.546875 L 22.296875 -8.546875 C 25.367188 -8.640625 28.019531 -9.953125 30.25 -12.484375 C 32.425781 -15.054688 33.515625 -18.03125 33.515625 -21.40625 C 33.460938 -23.582031 32.925781 -25.609375 31.90625 -27.484375 C 30.894531 -29.367188 29.570312 -30.894531 27.9375 -32.0625 C 26.300781 -33.226562 24.519531 -33.8125 22.59375 -33.8125 C 22.59375 -33.8125 22.578125 -33.8125 22.546875 -33.8125 C 22.523438 -33.8125 22.515625 -33.8125 22.515625 -33.8125 C 21.078125 -33.8125 19.664062 -33.488281 18.28125 -32.84375 C 16.894531 -32.195312 15.679688 -31.253906 14.640625 -30.015625 Z M 14.640625 -30.015625 "/></g></g></g></g><g fill="#1b1b1b" fill-opacity="1"><g transform="translate(350.337151, 59.346347)"><g><path d="M 2.078125 -11.375 C 2.921875 -12.21875 3.945312 -12.8125 5.15625 -13.15625 C 6.375 -13.5 7.578125 -13.472656 8.765625 -13.078125 C 10.453125 -12.578125 11.753906 -11.570312 12.671875 -10.0625 C 13.585938 -8.550781 13.847656 -6.929688 13.453125 -5.203125 C 13.253906 -4.109375 12.757812 -3.101562 11.96875 -2.1875 C 11.175781 -1.269531 10.234375 -0.613281 9.140625 -0.21875 C 7.554688 0.320312 6.019531 0.269531 4.53125 -0.375 C 3.039062 -1.019531 1.863281 -2.035156 1 -3.421875 C 0.132812 -4.804688 -0.144531 -6.316406 0.15625 -7.953125 C 0.445312 -9.335938 1.085938 -10.476562 2.078125 -11.375 Z M 2.078125 -11.375 "/></g></g></g></g></g></svg>