<svg xmlns="http://www.w3.org/2000/svg" xmlns:xlink="http://www.w3.org/1999/xlink" width="439" zoomAndPan="magnify" viewBox="0 0 329.25 88.499997" height="118" preserveAspectRatio="xMidYMid meet" version="1.0"><defs><g/><clipPath id="5f833ec7fc"><path d="M 0.550781 17.140625 L 43.0625 17.140625 L 43.0625 60 L 0.550781 60 Z M 0.550781 17.140625 " clip-rule="nonzero"/></clipPath></defs><g fill="#1b1b1b" fill-opacity="1"><g transform="translate(49.544936, 58.557267)"><g><path d="M 8.6875 -1.390625 C 6.71875 -2.535156 5.421875 -4.054688 4.796875 -5.953125 C 4.171875 -7.847656 3.878906 -9.867188 3.921875 -12.015625 C 3.953125 -13.265625 3.957031 -14.515625 3.9375 -15.765625 C 3.925781 -17.015625 3.921875 -18.25 3.921875 -19.46875 C 3.921875 -20.320312 3.925781 -21.1875 3.9375 -22.0625 C 3.957031 -22.9375 3.628906 -23.71875 2.953125 -24.40625 C 2.585938 -24.789062 2.132812 -25.046875 1.59375 -25.171875 C 1.0625 -25.296875 0.671875 -25.628906 0.421875 -26.171875 C 0.316406 -26.421875 0.242188 -26.671875 0.203125 -26.921875 C 0.171875 -27.171875 0.140625 -27.421875 0.109375 -27.671875 C 0.0664062 -28.242188 0.0625 -28.804688 0.09375 -29.359375 C 0.132812 -29.910156 0.367188 -30.398438 0.796875 -30.828125 C 1.160156 -31.148438 1.582031 -31.351562 2.0625 -31.4375 C 2.539062 -31.53125 2.941406 -31.773438 3.265625 -32.171875 C 3.878906 -32.890625 4.1875 -33.675781 4.1875 -34.53125 C 4.1875 -35.394531 4.148438 -36.21875 4.078125 -37 C 4.003906 -37.601562 3.957031 -38.09375 3.9375 -38.46875 C 3.925781 -38.851562 4.203125 -39.203125 4.765625 -39.515625 C 5.203125 -39.765625 5.75 -39.890625 6.40625 -39.890625 C 7.070312 -39.890625 7.734375 -39.851562 8.390625 -39.78125 C 9.054688 -39.71875 9.617188 -39.648438 10.078125 -39.578125 C 11.003906 -39.472656 11.503906 -39.125 11.578125 -38.53125 C 11.648438 -37.9375 11.648438 -37.265625 11.578125 -36.515625 C 11.441406 -34.441406 11.816406 -32.90625 12.703125 -31.90625 C 13.140625 -31.4375 13.625 -31.15625 14.15625 -31.0625 C 14.695312 -30.976562 15.242188 -30.953125 15.796875 -30.984375 C 16.347656 -31.023438 16.875 -31.023438 17.375 -30.984375 C 17.875 -30.953125 18.300781 -30.757812 18.65625 -30.40625 C 19.050781 -30.007812 19.222656 -29.410156 19.171875 -28.609375 C 19.117188 -27.804688 19.054688 -27.15625 18.984375 -26.65625 C 18.910156 -25.96875 18.613281 -25.484375 18.09375 -25.203125 C 17.582031 -24.921875 16.976562 -24.707031 16.28125 -24.5625 C 15.582031 -24.414062 14.898438 -24.242188 14.234375 -24.046875 C 13.578125 -23.847656 13.066406 -23.519531 12.703125 -23.0625 C 12.316406 -22.5625 11.988281 -21.710938 11.71875 -20.515625 C 11.445312 -19.316406 11.289062 -17.972656 11.25 -16.484375 C 11.21875 -15.003906 11.316406 -13.582031 11.546875 -12.21875 C 11.785156 -10.863281 12.207031 -9.738281 12.8125 -8.84375 C 13.425781 -7.945312 14.234375 -7.5 15.234375 -7.5 C 15.660156 -7.5 16.113281 -7.585938 16.59375 -7.765625 C 17.082031 -7.953125 17.554688 -8.109375 18.015625 -8.234375 C 18.484375 -8.359375 18.894531 -8.332031 19.25 -8.15625 C 19.75 -7.976562 20.175781 -7.503906 20.53125 -6.734375 C 20.894531 -5.960938 21.179688 -5.363281 21.390625 -4.9375 C 21.609375 -4.539062 21.753906 -4.144531 21.828125 -3.75 C 21.859375 -3.21875 21.640625 -2.796875 21.171875 -2.484375 C 20.710938 -2.179688 20.285156 -1.925781 19.890625 -1.71875 C 18.140625 -0.71875 16.28125 -0.15625 14.3125 -0.03125 C 12.351562 0.09375 10.476562 -0.359375 8.6875 -1.390625 Z M 8.6875 -1.390625 "/></g></g></g><g fill="#1b1b1b" fill-opacity="1"><g transform="translate(71.531549, 58.557267)"><g><path d="M 28.375 -19.40625 C 28.582031 -17.625 28.675781 -15.820312 28.65625 -14 C 28.644531 -12.175781 28.640625 -10.492188 28.640625 -8.953125 C 28.640625 -8.597656 28.671875 -7.960938 28.734375 -7.046875 C 28.804688 -6.140625 28.84375 -5.1875 28.84375 -4.1875 C 28.84375 -3.1875 28.765625 -2.316406 28.609375 -1.578125 C 28.453125 -0.847656 28.15625 -0.445312 27.71875 -0.375 C 27.144531 -0.300781 26.398438 -0.191406 25.484375 -0.046875 C 24.578125 0.0859375 23.703125 0.117188 22.859375 0.046875 C 22.023438 -0.015625 21.394531 -0.316406 20.96875 -0.859375 C 20.46875 -1.503906 20.269531 -2.316406 20.375 -3.296875 C 20.476562 -4.273438 20.515625 -5.125 20.484375 -5.84375 C 20.484375 -7.84375 20.472656 -9.828125 20.453125 -11.796875 C 20.441406 -13.765625 20.453125 -15.734375 20.484375 -17.703125 C 20.484375 -19.554688 20.035156 -21.035156 19.140625 -22.140625 C 18.242188 -23.253906 16.957031 -23.914062 15.28125 -24.125 C 15.175781 -24.164062 15.066406 -24.1875 14.953125 -24.1875 C 14.847656 -24.1875 14.742188 -24.1875 14.640625 -24.1875 C 13.597656 -24.1875 12.617188 -23.90625 11.703125 -23.34375 C 10.796875 -22.789062 10.046875 -22.054688 9.453125 -21.140625 C 8.867188 -20.234375 8.523438 -19.226562 8.421875 -18.125 C 8.316406 -16.800781 8.253906 -15.484375 8.234375 -14.171875 C 8.210938 -12.867188 8.222656 -11.578125 8.265625 -10.296875 C 8.265625 -8.867188 8.253906 -7.421875 8.234375 -5.953125 C 8.210938 -4.484375 8.203125 -3.019531 8.203125 -1.5625 C 8.203125 -1.019531 7.925781 -0.640625 7.375 -0.421875 C 6.820312 -0.210938 6.140625 -0.109375 5.328125 -0.109375 C 4.523438 -0.109375 3.757812 -0.144531 3.03125 -0.21875 C 2.300781 -0.289062 1.738281 -0.328125 1.34375 -0.328125 C 0.800781 -0.328125 0.429688 -0.582031 0.234375 -1.09375 C 0.046875 -1.613281 -0.03125 -2.226562 0 -2.9375 C 0.03125 -3.65625 0.09375 -4.34375 0.1875 -5 C 0.28125 -5.664062 0.328125 -6.179688 0.328125 -6.546875 C 0.359375 -7.578125 0.378906 -8.609375 0.390625 -9.640625 C 0.410156 -10.679688 0.421875 -11.722656 0.421875 -12.765625 C 0.421875 -17.234375 0.375 -21.703125 0.28125 -26.171875 C 0.195312 -30.640625 0.15625 -35.085938 0.15625 -39.515625 C 0.15625 -40.085938 0.226562 -40.613281 0.375 -41.09375 C 0.519531 -41.582031 0.914062 -41.898438 1.5625 -42.046875 C 2.34375 -42.222656 3.160156 -42.265625 4.015625 -42.171875 C 4.878906 -42.085938 5.703125 -42.023438 6.484375 -41.984375 C 7.453125 -41.953125 8.097656 -41.613281 8.421875 -40.96875 C 8.742188 -40.320312 8.875 -39.523438 8.8125 -38.578125 C 8.757812 -37.628906 8.644531 -36.695312 8.46875 -35.78125 C 8.289062 -34.875 8.203125 -34.132812 8.203125 -33.5625 L 8.203125 -30.828125 C 8.203125 -30.441406 8.363281 -30.101562 8.6875 -29.8125 C 8.90625 -29.601562 9.207031 -29.5 9.59375 -29.5 C 9.632812 -29.5 9.660156 -29.5 9.671875 -29.5 C 9.691406 -29.5 9.722656 -29.5 9.765625 -29.5 C 10.335938 -29.5625 10.878906 -29.640625 11.390625 -29.734375 C 11.910156 -29.828125 12.40625 -29.90625 12.875 -29.96875 C 13.800781 -30.15625 14.691406 -30.300781 15.546875 -30.40625 C 16.410156 -30.507812 17.234375 -30.5625 18.015625 -30.5625 C 20.453125 -30.5625 22.375 -30.039062 23.78125 -29 C 25.195312 -27.96875 26.253906 -26.601562 26.953125 -24.90625 C 27.648438 -23.207031 28.125 -21.375 28.375 -19.40625 Z M 28.375 -19.40625 "/></g></g></g><g fill="#1b1b1b" fill-opacity="1"><g transform="translate(100.489642, 58.557267)"><g><path d="M 30.078125 -13.625 C 29.648438 -13.257812 29.015625 -13.015625 28.171875 -12.890625 C 27.335938 -12.765625 26.445312 -12.703125 25.5 -12.703125 C 24.550781 -12.703125 23.664062 -12.71875 22.84375 -12.75 C 22.019531 -12.789062 21.394531 -12.8125 20.96875 -12.8125 C 19.101562 -12.78125 17.257812 -12.753906 15.4375 -12.734375 C 13.613281 -12.710938 11.773438 -12.703125 9.921875 -12.703125 C 9.347656 -12.703125 8.976562 -12.523438 8.8125 -12.171875 C 8.65625 -11.816406 8.640625 -11.414062 8.765625 -10.96875 C 8.890625 -10.519531 9.0625 -10.132812 9.28125 -9.8125 C 10.03125 -8.84375 10.96875 -8.0625 12.09375 -7.46875 C 13.21875 -6.882812 14.390625 -6.519531 15.609375 -6.375 C 16.960938 -6.238281 18.09375 -6.425781 19 -6.9375 C 19.914062 -7.457031 20.945312 -8.003906 22.09375 -8.578125 C 22.625 -8.867188 22.988281 -9.046875 23.1875 -9.109375 C 23.382812 -9.179688 23.71875 -9.023438 24.1875 -8.640625 C 24.6875 -8.242188 25.160156 -7.703125 25.609375 -7.015625 C 26.054688 -6.335938 26.492188 -5.75 26.921875 -5.25 C 27.378906 -4.644531 27.359375 -4.070312 26.859375 -3.53125 C 26.359375 -3 25.585938 -2.507812 24.546875 -2.0625 C 23.515625 -1.613281 22.390625 -1.226562 21.171875 -0.90625 C 19.960938 -0.582031 18.863281 -0.332031 17.875 -0.15625 C 16.894531 0.0195312 16.226562 0.109375 15.875 0.109375 C 13.476562 0.109375 11.269531 -0.363281 9.25 -1.3125 C 7.226562 -2.257812 5.503906 -3.546875 4.078125 -5.171875 C 2.648438 -6.796875 1.578125 -8.628906 0.859375 -10.671875 C 0.140625 -12.710938 -0.140625 -14.847656 0.015625 -17.078125 C 0.179688 -19.316406 0.875 -21.488281 2.09375 -23.59375 C 3.019531 -25.238281 4.257812 -26.632812 5.8125 -27.78125 C 7.375 -28.925781 9.09375 -29.773438 10.96875 -30.328125 C 12.84375 -30.878906 14.765625 -31.128906 16.734375 -31.078125 C 18.703125 -31.023438 20.566406 -30.628906 22.328125 -29.890625 C 24.097656 -29.160156 25.644531 -28.0625 26.96875 -26.59375 C 27.582031 -25.914062 28.164062 -25.066406 28.71875 -24.046875 C 29.269531 -23.023438 29.742188 -21.925781 30.140625 -20.75 C 30.535156 -19.570312 30.773438 -18.421875 30.859375 -17.296875 C 30.953125 -16.171875 30.835938 -15.140625 30.515625 -14.203125 C 30.441406 -13.992188 30.296875 -13.800781 30.078125 -13.625 Z M 21.984375 -19.203125 C 22.085938 -19.453125 22.125 -19.71875 22.09375 -20 C 22.0625 -20.425781 21.863281 -20.835938 21.5 -21.234375 C 20.539062 -22.585938 19.289062 -23.585938 17.75 -24.234375 C 16.207031 -24.878906 14.632812 -24.84375 13.03125 -24.125 C 12.3125 -23.8125 11.640625 -23.398438 11.015625 -22.890625 C 10.390625 -22.390625 9.8125 -21.859375 9.28125 -21.296875 C 9.132812 -21.148438 8.988281 -20.984375 8.84375 -20.796875 C 8.707031 -20.617188 8.601562 -20.425781 8.53125 -20.21875 C 8.382812 -19.789062 8.453125 -19.394531 8.734375 -19.03125 C 9.023438 -18.675781 9.382812 -18.5 9.8125 -18.5 L 20.75 -18.5 C 21.363281 -18.5 21.773438 -18.734375 21.984375 -19.203125 Z M 21.984375 -19.203125 "/></g></g></g><g fill="#1b1b1b" fill-opacity="1"><g transform="translate(131.48555, 58.557267)"><g><path d="M 0.21875 -1.984375 C 0.351562 -5.484375 0.429688 -8.984375 0.453125 -12.484375 C 0.472656 -15.992188 0.445312 -19.5 0.375 -23 C 0.375 -24.96875 0.351562 -26.941406 0.3125 -28.921875 C 0.28125 -30.910156 0.265625 -32.890625 0.265625 -34.859375 C 0.265625 -35.390625 0.21875 -36.054688 0.125 -36.859375 C 0.0390625 -37.671875 0.015625 -38.488281 0.046875 -39.3125 C 0.0859375 -40.132812 0.25 -40.820312 0.53125 -41.375 C 0.820312 -41.925781 1.34375 -42.203125 2.09375 -42.203125 C 2.164062 -42.203125 2.21875 -42.203125 2.25 -42.203125 C 2.289062 -42.203125 2.328125 -42.203125 2.359375 -42.203125 C 2.890625 -42.171875 3.390625 -42.15625 3.859375 -42.15625 C 4.328125 -42.15625 4.738281 -42.132812 5.09375 -42.09375 C 5.414062 -42.09375 5.78125 -42.109375 6.1875 -42.140625 C 6.601562 -42.179688 6.976562 -42.144531 7.3125 -42.03125 C 7.65625 -41.925781 7.847656 -41.660156 7.890625 -41.234375 C 8.066406 -39.628906 8.09375 -38.03125 7.96875 -36.4375 C 7.84375 -34.84375 7.78125 -33.222656 7.78125 -31.578125 C 7.78125 -31.015625 7.910156 -30.488281 8.171875 -30 C 8.441406 -29.519531 8.914062 -29.28125 9.59375 -29.28125 C 9.769531 -29.28125 9.945312 -29.304688 10.125 -29.359375 C 10.3125 -29.410156 10.476562 -29.457031 10.625 -29.5 C 10.6875 -29.5 10.726562 -29.503906 10.75 -29.515625 C 10.769531 -29.535156 10.796875 -29.546875 10.828125 -29.546875 C 11.046875 -29.578125 11.253906 -29.628906 11.453125 -29.703125 C 11.648438 -29.773438 11.851562 -29.832031 12.0625 -29.875 C 12.238281 -29.90625 12.414062 -29.945312 12.59375 -30 C 12.78125 -30.050781 12.960938 -30.097656 13.140625 -30.140625 C 15.960938 -30.742188 18.675781 -30.773438 21.28125 -30.234375 C 23.894531 -29.703125 26.148438 -28.222656 28.046875 -25.796875 C 29.617188 -23.796875 30.632812 -21.578125 31.09375 -19.140625 C 31.5625 -16.710938 31.535156 -14.304688 31.015625 -11.921875 C 30.503906 -9.546875 29.550781 -7.398438 28.15625 -5.484375 C 26.757812 -3.578125 24.988281 -2.101562 22.84375 -1.0625 C 20.695312 -0.03125 18.25 0.320312 15.5 0 C 14.5 -0.101562 13.53125 -0.296875 12.59375 -0.578125 C 11.664062 -0.867188 10.703125 -1.015625 9.703125 -1.015625 C 9.273438 -1.015625 8.851562 -0.988281 8.4375 -0.9375 C 8.03125 -0.882812 7.628906 -0.769531 7.234375 -0.59375 C 6.597656 -0.34375 5.722656 -0.21875 4.609375 -0.21875 C 4.429688 -0.21875 4.234375 -0.21875 4.015625 -0.21875 C 3.804688 -0.21875 3.613281 -0.21875 3.4375 -0.21875 C 2.96875 -0.25 2.472656 -0.238281 1.953125 -0.1875 C 1.441406 -0.132812 1.023438 -0.195312 0.703125 -0.375 C 0.378906 -0.550781 0.21875 -0.976562 0.21875 -1.65625 C 0.21875 -1.726562 0.21875 -1.789062 0.21875 -1.84375 C 0.21875 -1.90625 0.21875 -1.953125 0.21875 -1.984375 Z M 10.5625 -21.671875 C 9.03125 -19.910156 8.265625 -17.78125 8.265625 -15.28125 C 8.265625 -13.78125 8.640625 -12.332031 9.390625 -10.9375 C 10.140625 -9.539062 11.113281 -8.394531 12.3125 -7.5 C 13.507812 -6.613281 14.734375 -6.171875 15.984375 -6.171875 L 16.09375 -6.171875 C 18.300781 -6.242188 20.210938 -7.191406 21.828125 -9.015625 C 23.398438 -10.867188 24.1875 -13.007812 24.1875 -15.4375 C 24.144531 -17.007812 23.757812 -18.472656 23.03125 -19.828125 C 22.300781 -21.191406 21.34375 -22.296875 20.15625 -23.140625 C 18.976562 -23.984375 17.691406 -24.40625 16.296875 -24.40625 C 16.296875 -24.40625 16.285156 -24.40625 16.265625 -24.40625 C 16.253906 -24.40625 16.25 -24.40625 16.25 -24.40625 C 15.207031 -24.40625 14.1875 -24.171875 13.1875 -23.703125 C 12.1875 -23.234375 11.3125 -22.554688 10.5625 -21.671875 Z M 10.5625 -21.671875 "/></g></g></g><g fill="#1b1b1b" fill-opacity="1"><g transform="translate(163.01773, 58.557267)"><g><path d="M 7.984375 -0.75 C 7.734375 -0.425781 7.375 -0.242188 6.90625 -0.203125 C 6.445312 -0.171875 5.96875 -0.117188 5.46875 -0.046875 C 5 -0.015625 4.453125 0.015625 3.828125 0.046875 C 3.203125 0.0859375 2.613281 0.03125 2.0625 -0.125 C 1.507812 -0.289062 1.085938 -0.625 0.796875 -1.125 C 0.367188 -1.914062 0.117188 -2.78125 0.046875 -3.71875 C -0.015625 -4.664062 0.00390625 -5.628906 0.109375 -6.609375 C 0.210938 -7.597656 0.265625 -8.523438 0.265625 -9.390625 C 0.304688 -11.066406 0.332031 -12.734375 0.34375 -14.390625 C 0.363281 -16.054688 0.390625 -17.726562 0.421875 -19.40625 C 0.460938 -22.738281 0.472656 -26.070312 0.453125 -29.40625 C 0.429688 -32.75 0.390625 -36.085938 0.328125 -39.421875 C 0.328125 -40.347656 0.519531 -41.015625 0.90625 -41.421875 C 1.300781 -41.835938 1.820312 -42.078125 2.46875 -42.140625 C 3.113281 -42.210938 3.8125 -42.195312 4.5625 -42.09375 C 5.3125 -41.988281 6.023438 -41.898438 6.703125 -41.828125 C 7.453125 -41.753906 7.941406 -41.347656 8.171875 -40.609375 C 8.410156 -39.878906 8.519531 -39.09375 8.5 -38.25 C 8.476562 -37.414062 8.453125 -36.75 8.421875 -36.25 C 8.347656 -34.601562 8.300781 -32.941406 8.28125 -31.265625 C 8.269531 -29.585938 8.265625 -27.90625 8.265625 -26.21875 C 8.265625 -22.144531 8.265625 -18.070312 8.265625 -14 C 8.265625 -9.925781 8.265625 -5.847656 8.265625 -1.765625 C 8.265625 -1.335938 8.171875 -1 7.984375 -0.75 Z M 7.984375 -0.75 "/></g></g></g><g fill="#1b1b1b" fill-opacity="1"><g transform="translate(171.651276, 58.557267)"><g><path d="M 0.046875 -15.546875 C 0.015625 -17.546875 0.410156 -19.535156 1.234375 -21.515625 C 2.054688 -23.503906 3.203125 -25.253906 4.671875 -26.765625 C 6.054688 -28.191406 7.644531 -29.28125 9.4375 -30.03125 C 11.226562 -30.78125 13.070312 -31.15625 14.96875 -31.15625 C 15.144531 -31.15625 15.328125 -31.15625 15.515625 -31.15625 C 15.710938 -31.15625 15.90625 -31.15625 16.09375 -31.15625 C 16.09375 -31.15625 16.097656 -31.15625 16.109375 -31.15625 C 16.128906 -31.15625 16.140625 -31.15625 16.140625 -31.15625 C 19.253906 -31.15625 22 -30.507812 24.375 -29.21875 C 26.75 -27.9375 28.613281 -26.148438 29.96875 -23.859375 C 31.332031 -21.578125 32.015625 -18.929688 32.015625 -15.921875 C 32.015625 -11.242188 30.546875 -7.4375 27.609375 -4.5 C 26.179688 -3.070312 24.472656 -1.972656 22.484375 -1.203125 C 20.503906 -0.429688 18.351562 -0.046875 16.03125 -0.046875 C 13.8125 -0.046875 11.742188 -0.445312 9.828125 -1.25 C 7.921875 -2.0625 6.242188 -3.171875 4.796875 -4.578125 C 3.347656 -5.992188 2.203125 -7.640625 1.359375 -9.515625 C 0.523438 -11.390625 0.0859375 -13.398438 0.046875 -15.546875 Z M 15.875 -24.78125 C 14.625 -24.78125 13.40625 -24.375 12.21875 -23.5625 C 11.039062 -22.757812 10.066406 -21.722656 9.296875 -20.453125 C 8.535156 -19.179688 8.132812 -17.851562 8.09375 -16.46875 C 8.0625 -14.925781 8.3125 -13.4375 8.84375 -12 C 9.382812 -10.570312 10.207031 -9.375 11.3125 -8.40625 C 12.425781 -7.445312 13.800781 -6.878906 15.4375 -6.703125 C 17.257812 -6.523438 18.796875 -6.8125 20.046875 -7.5625 C 21.304688 -8.3125 22.273438 -9.335938 22.953125 -10.640625 C 23.628906 -11.953125 24.003906 -13.382812 24.078125 -14.9375 C 24.148438 -16.488281 23.914062 -17.976562 23.375 -19.40625 C 22.84375 -20.84375 21.984375 -22.050781 20.796875 -23.03125 C 19.617188 -24.007812 18.117188 -24.59375 16.296875 -24.78125 C 16.222656 -24.78125 16.148438 -24.78125 16.078125 -24.78125 C 16.015625 -24.78125 15.945312 -24.78125 15.875 -24.78125 Z M 15.875 -24.78125 "/></g></g></g><g fill="#1b1b1b" fill-opacity="1"><g transform="translate(203.773351, 58.557267)"><g><path d="M 31 -23.109375 C 31 -20.679688 31.015625 -18.234375 31.046875 -15.765625 C 31.085938 -13.296875 31.070312 -10.847656 31 -8.421875 C 30.957031 -7.054688 30.9375 -5.640625 30.9375 -4.171875 C 30.9375 -2.710938 30.828125 -1.269531 30.609375 0.15625 C 30.398438 1.59375 29.957031 2.9375 29.28125 4.1875 C 28.382812 5.832031 27.203125 7.195312 25.734375 8.28125 C 24.273438 9.375 22.660156 10.1875 20.890625 10.71875 C 19.117188 11.257812 17.320312 11.53125 15.5 11.53125 C 15.351562 11.53125 15.207031 11.53125 15.0625 11.53125 C 14.925781 11.53125 14.785156 11.53125 14.640625 11.53125 C 13.460938 11.457031 12.289062 11.359375 11.125 11.234375 C 9.96875 11.109375 8.816406 10.867188 7.671875 10.515625 C 7.203125 10.367188 6.644531 10.175781 6 9.9375 C 5.363281 9.707031 4.757812 9.429688 4.1875 9.109375 C 3.613281 8.796875 3.207031 8.394531 2.96875 7.90625 C 2.738281 7.425781 2.785156 6.847656 3.109375 6.171875 C 3.359375 5.671875 3.609375 5.160156 3.859375 4.640625 C 4.109375 4.117188 4.359375 3.609375 4.609375 3.109375 C 4.898438 2.578125 5.273438 2.300781 5.734375 2.28125 C 6.203125 2.257812 6.722656 2.382812 7.296875 2.65625 C 7.867188 2.925781 8.421875 3.21875 8.953125 3.53125 C 9.492188 3.851562 9.941406 4.070312 10.296875 4.1875 C 11.046875 4.4375 11.820312 4.628906 12.625 4.765625 C 13.425781 4.910156 14.222656 4.984375 15.015625 4.984375 C 16.984375 4.984375 18.734375 4.472656 20.265625 3.453125 C 21.804688 2.441406 22.914062 1.003906 23.59375 -0.859375 C 23.664062 -1.035156 23.71875 -1.203125 23.75 -1.359375 C 23.789062 -1.523438 23.789062 -1.679688 23.75 -1.828125 C 23.71875 -2.429688 23.488281 -2.785156 23.0625 -2.890625 C 22.632812 -3.003906 22.140625 -2.988281 21.578125 -2.84375 C 21.023438 -2.695312 20.488281 -2.507812 19.96875 -2.28125 C 19.457031 -2.050781 19.054688 -1.898438 18.765625 -1.828125 C 17.941406 -1.578125 17.101562 -1.367188 16.25 -1.203125 C 15.394531 -1.046875 14.535156 -0.96875 13.671875 -0.96875 C 11.421875 -0.96875 9.421875 -1.539062 7.671875 -2.6875 C 6.234375 -3.613281 4.960938 -4.664062 3.859375 -5.84375 C 2.753906 -7.019531 1.953125 -8.164062 1.453125 -9.28125 C 0.0546875 -12.53125 -0.335938 -15.765625 0.265625 -18.984375 C 0.878906 -22.203125 2.4375 -25.007812 4.9375 -27.40625 C 7.4375 -29.832031 10.3125 -31.046875 13.5625 -31.046875 C 16.03125 -31.046875 18.476562 -30.367188 20.90625 -29.015625 C 21.09375 -28.867188 21.328125 -28.796875 21.609375 -28.796875 C 22.035156 -28.796875 22.394531 -28.972656 22.6875 -29.328125 C 22.863281 -29.546875 23.300781 -29.769531 24 -30 C 24.695312 -30.238281 25.519531 -30.445312 26.46875 -30.625 C 27.414062 -30.800781 28.316406 -30.890625 29.171875 -30.890625 C 29.703125 -30.890625 30.078125 -30.851562 30.296875 -30.78125 C 30.515625 -30.707031 30.691406 -30.421875 30.828125 -29.921875 C 31.015625 -29.347656 31.070312 -28.675781 31 -27.90625 C 30.925781 -27.144531 30.90625 -26.457031 30.9375 -25.84375 C 30.9375 -25.382812 30.9375 -24.929688 30.9375 -24.484375 C 30.9375 -24.035156 30.957031 -23.578125 31 -23.109375 Z M 21.5 -10.1875 C 22.96875 -11.9375 23.703125 -13.992188 23.703125 -16.359375 C 23.703125 -17.929688 23.351562 -19.34375 22.65625 -20.59375 C 21.957031 -21.84375 21.023438 -22.820312 19.859375 -23.53125 C 18.703125 -24.25 17.390625 -24.609375 15.921875 -24.609375 C 14.921875 -24.578125 13.957031 -24.363281 13.03125 -23.96875 C 12.101562 -23.570312 11.28125 -23 10.5625 -22.25 C 8.882812 -20.539062 8.082031 -18.414062 8.15625 -15.875 C 8.1875 -14.40625 8.578125 -13.023438 9.328125 -11.734375 C 10.078125 -10.453125 11.03125 -9.414062 12.1875 -8.625 C 13.351562 -7.84375 14.597656 -7.453125 15.921875 -7.453125 C 15.921875 -7.453125 15.929688 -7.453125 15.953125 -7.453125 C 15.972656 -7.453125 15.984375 -7.453125 15.984375 -7.453125 C 18.128906 -7.453125 19.96875 -8.363281 21.5 -10.1875 Z M 21.5 -10.1875 "/></g></g></g><g fill="#1b1b1b" fill-opacity="1"><g transform="translate(234.983768, 58.557267)"><g><path d="M 7.984375 -0.75 C 7.734375 -0.425781 7.375 -0.242188 6.90625 -0.203125 C 6.445312 -0.171875 5.96875 -0.117188 5.46875 -0.046875 C 5 -0.015625 4.453125 0.015625 3.828125 0.046875 C 3.203125 0.0859375 2.613281 0.03125 2.0625 -0.125 C 1.507812 -0.289062 1.085938 -0.625 0.796875 -1.125 C 0.367188 -1.914062 0.117188 -2.78125 0.046875 -3.71875 C -0.015625 -4.664062 0.00390625 -5.628906 0.109375 -6.609375 C 0.210938 -7.597656 0.265625 -8.523438 0.265625 -9.390625 C 0.304688 -11.066406 0.332031 -12.734375 0.34375 -14.390625 C 0.363281 -16.054688 0.390625 -17.726562 0.421875 -19.40625 C 0.460938 -22.738281 0.472656 -26.070312 0.453125 -29.40625 C 0.429688 -32.75 0.390625 -36.085938 0.328125 -39.421875 C 0.328125 -40.347656 0.519531 -41.015625 0.90625 -41.421875 C 1.300781 -41.835938 1.820312 -42.078125 2.46875 -42.140625 C 3.113281 -42.210938 3.8125 -42.195312 4.5625 -42.09375 C 5.3125 -41.988281 6.023438 -41.898438 6.703125 -41.828125 C 7.453125 -41.753906 7.941406 -41.347656 8.171875 -40.609375 C 8.410156 -39.878906 8.519531 -39.09375 8.5 -38.25 C 8.476562 -37.414062 8.453125 -36.75 8.421875 -36.25 C 8.347656 -34.601562 8.300781 -32.941406 8.28125 -31.265625 C 8.269531 -29.585938 8.265625 -27.90625 8.265625 -26.21875 C 8.265625 -22.144531 8.265625 -18.070312 8.265625 -14 C 8.265625 -9.925781 8.265625 -5.847656 8.265625 -1.765625 C 8.265625 -1.335938 8.171875 -1 7.984375 -0.75 Z M 7.984375 -0.75 "/></g></g></g><g fill="#1b1b1b" fill-opacity="1"><g transform="translate(243.617314, 58.557267)"><g><path d="M 26.21875 -1.34375 C 25.9375 -0.976562 25.488281 -0.78125 24.875 -0.75 C 24.3125 -0.75 23.757812 -0.863281 23.21875 -1.09375 C 22.6875 -1.332031 22.160156 -1.566406 21.640625 -1.796875 C 21.117188 -2.023438 20.554688 -2.140625 19.953125 -2.140625 C 19.554688 -2.140625 19.160156 -2.113281 18.765625 -2.0625 C 18.367188 -2.007812 18.015625 -1.945312 17.703125 -1.875 L 17.421875 -1.828125 C 16.390625 -1.648438 15.378906 -1.414062 14.390625 -1.125 C 13.410156 -0.84375 12.492188 -0.554688 11.640625 -0.265625 C 11.242188 -0.160156 10.835938 -0.0703125 10.421875 0 C 10.015625 0.0703125 9.597656 0.109375 9.171875 0.109375 C 6.554688 0.109375 4.359375 -0.925781 2.578125 -3 C 0.535156 -5.320312 -0.269531 -8.179688 0.15625 -11.578125 C 0.332031 -12.941406 0.804688 -14.160156 1.578125 -15.234375 C 2.347656 -16.304688 3.320312 -17.128906 4.5 -17.703125 C 5.113281 -17.984375 5.757812 -18.1875 6.4375 -18.3125 C 7.113281 -18.4375 7.8125 -18.550781 8.53125 -18.65625 C 8.707031 -18.65625 8.863281 -18.664062 9 -18.6875 C 9.144531 -18.707031 9.289062 -18.734375 9.4375 -18.765625 L 16.46875 -19.734375 C 17.394531 -19.878906 17.972656 -20.15625 18.203125 -20.5625 C 18.429688 -20.976562 18.566406 -21.3125 18.609375 -21.5625 C 18.679688 -22.164062 18.492188 -22.71875 18.046875 -23.21875 C 17.597656 -23.71875 17.070312 -24.054688 16.46875 -24.234375 C 15.351562 -24.660156 14.207031 -24.875 13.03125 -24.875 L 12.875 -24.875 C 11.757812 -24.84375 10.703125 -24.679688 9.703125 -24.390625 C 8.703125 -24.109375 7.738281 -23.769531 6.8125 -23.375 C 6.519531 -23.238281 6.179688 -23.171875 5.796875 -23.171875 C 5.003906 -23.171875 4.222656 -23.425781 3.453125 -23.9375 C 2.691406 -24.457031 2.148438 -25.078125 1.828125 -25.796875 C 1.679688 -26.078125 1.613281 -26.316406 1.625 -26.515625 C 1.644531 -26.710938 1.675781 -26.863281 1.71875 -26.96875 C 1.925781 -27.4375 2.34375 -27.859375 2.96875 -28.234375 C 3.601562 -28.609375 4.265625 -28.925781 4.953125 -29.1875 C 5.648438 -29.457031 6.234375 -29.664062 6.703125 -29.8125 C 9.273438 -30.632812 11.867188 -31.046875 14.484375 -31.046875 C 14.734375 -31.046875 14.984375 -31.046875 15.234375 -31.046875 C 15.484375 -31.046875 15.734375 -31.03125 15.984375 -31 C 17.234375 -30.925781 18.617188 -30.679688 20.140625 -30.265625 C 21.660156 -29.859375 22.957031 -29.082031 24.03125 -27.9375 C 25.28125 -26.582031 26.03125 -25.222656 26.28125 -23.859375 C 26.5625 -22.328125 26.65625 -20.726562 26.5625 -19.0625 C 26.476562 -17.394531 26.453125 -15.773438 26.484375 -14.203125 C 26.484375 -12.597656 26.484375 -10.984375 26.484375 -9.359375 C 26.484375 -7.734375 26.503906 -6.132812 26.546875 -4.5625 C 26.546875 -4.019531 26.570312 -3.445312 26.625 -2.84375 C 26.675781 -2.238281 26.539062 -1.738281 26.21875 -1.34375 Z M 18.453125 -10.5625 C 18.734375 -11.132812 18.816406 -11.617188 18.703125 -12.015625 C 18.597656 -12.410156 18.492188 -12.675781 18.390625 -12.8125 C 18.242188 -13.03125 18.019531 -13.238281 17.71875 -13.4375 C 17.414062 -13.632812 17 -13.75 16.46875 -13.78125 L 16.03125 -13.828125 C 15.707031 -13.867188 15.375 -13.890625 15.03125 -13.890625 C 14.695312 -13.890625 14.332031 -13.890625 13.9375 -13.890625 C 13.332031 -13.890625 12.597656 -13.828125 11.734375 -13.703125 C 10.878906 -13.578125 10.0625 -13.242188 9.28125 -12.703125 C 8.738281 -12.273438 8.398438 -11.832031 8.265625 -11.375 C 8.117188 -10.976562 8.097656 -10.472656 8.203125 -9.859375 C 8.453125 -8.753906 8.929688 -7.894531 9.640625 -7.28125 C 10.359375 -6.675781 11.21875 -6.375 12.21875 -6.375 C 13.476562 -6.375 14.710938 -6.785156 15.921875 -7.609375 C 17.140625 -8.429688 17.984375 -9.414062 18.453125 -10.5625 Z M 18.453125 -10.5625 "/></g></g></g><g fill="#1b1b1b" fill-opacity="1"><g transform="translate(270.376705, 58.557267)"><g><path d="M 0.21875 -1.984375 C 0.351562 -5.484375 0.429688 -8.984375 0.453125 -12.484375 C 0.472656 -15.992188 0.445312 -19.5 0.375 -23 C 0.375 -24.96875 0.351562 -26.941406 0.3125 -28.921875 C 0.28125 -30.910156 0.265625 -32.890625 0.265625 -34.859375 C 0.265625 -35.390625 0.21875 -36.054688 0.125 -36.859375 C 0.0390625 -37.671875 0.015625 -38.488281 0.046875 -39.3125 C 0.0859375 -40.132812 0.25 -40.820312 0.53125 -41.375 C 0.820312 -41.925781 1.34375 -42.203125 2.09375 -42.203125 C 2.164062 -42.203125 2.21875 -42.203125 2.25 -42.203125 C 2.289062 -42.203125 2.328125 -42.203125 2.359375 -42.203125 C 2.890625 -42.171875 3.390625 -42.15625 3.859375 -42.15625 C 4.328125 -42.15625 4.738281 -42.132812 5.09375 -42.09375 C 5.414062 -42.09375 5.78125 -42.109375 6.1875 -42.140625 C 6.601562 -42.179688 6.976562 -42.144531 7.3125 -42.03125 C 7.65625 -41.925781 7.847656 -41.660156 7.890625 -41.234375 C 8.066406 -39.628906 8.09375 -38.03125 7.96875 -36.4375 C 7.84375 -34.84375 7.78125 -33.222656 7.78125 -31.578125 C 7.78125 -31.015625 7.910156 -30.488281 8.171875 -30 C 8.441406 -29.519531 8.914062 -29.28125 9.59375 -29.28125 C 9.769531 -29.28125 9.945312 -29.304688 10.125 -29.359375 C 10.3125 -29.410156 10.476562 -29.457031 10.625 -29.5 C 10.6875 -29.5 10.726562 -29.503906 10.75 -29.515625 C 10.769531 -29.535156 10.796875 -29.546875 10.828125 -29.546875 C 11.046875 -29.578125 11.253906 -29.628906 11.453125 -29.703125 C 11.648438 -29.773438 11.851562 -29.832031 12.0625 -29.875 C 12.238281 -29.90625 12.414062 -29.945312 12.59375 -30 C 12.78125 -30.050781 12.960938 -30.097656 13.140625 -30.140625 C 15.960938 -30.742188 18.675781 -30.773438 21.28125 -30.234375 C 23.894531 -29.703125 26.148438 -28.222656 28.046875 -25.796875 C 29.617188 -23.796875 30.632812 -21.578125 31.09375 -19.140625 C 31.5625 -16.710938 31.535156 -14.304688 31.015625 -11.921875 C 30.503906 -9.546875 29.550781 -7.398438 28.15625 -5.484375 C 26.757812 -3.578125 24.988281 -2.101562 22.84375 -1.0625 C 20.695312 -0.03125 18.25 0.320312 15.5 0 C 14.5 -0.101562 13.53125 -0.296875 12.59375 -0.578125 C 11.664062 -0.867188 10.703125 -1.015625 9.703125 -1.015625 C 9.273438 -1.015625 8.851562 -0.988281 8.4375 -0.9375 C 8.03125 -0.882812 7.628906 -0.769531 7.234375 -0.59375 C 6.597656 -0.34375 5.722656 -0.21875 4.609375 -0.21875 C 4.429688 -0.21875 4.234375 -0.21875 4.015625 -0.21875 C 3.804688 -0.21875 3.613281 -0.21875 3.4375 -0.21875 C 2.96875 -0.25 2.472656 -0.238281 1.953125 -0.1875 C 1.441406 -0.132812 1.023438 -0.195312 0.703125 -0.375 C 0.378906 -0.550781 0.21875 -0.976562 0.21875 -1.65625 C 0.21875 -1.726562 0.21875 -1.789062 0.21875 -1.84375 C 0.21875 -1.90625 0.21875 -1.953125 0.21875 -1.984375 Z M 10.5625 -21.671875 C 9.03125 -19.910156 8.265625 -17.78125 8.265625 -15.28125 C 8.265625 -13.78125 8.640625 -12.332031 9.390625 -10.9375 C 10.140625 -9.539062 11.113281 -8.394531 12.3125 -7.5 C 13.507812 -6.613281 14.734375 -6.171875 15.984375 -6.171875 L 16.09375 -6.171875 C 18.300781 -6.242188 20.210938 -7.191406 21.828125 -9.015625 C 23.398438 -10.867188 24.1875 -13.007812 24.1875 -15.4375 C 24.144531 -17.007812 23.757812 -18.472656 23.03125 -19.828125 C 22.300781 -21.191406 21.34375 -22.296875 20.15625 -23.140625 C 18.976562 -23.984375 17.691406 -24.40625 16.296875 -24.40625 C 16.296875 -24.40625 16.285156 -24.40625 16.265625 -24.40625 C 16.253906 -24.40625 16.25 -24.40625 16.25 -24.40625 C 15.207031 -24.40625 14.1875 -24.171875 13.1875 -23.703125 C 12.1875 -23.234375 11.3125 -22.554688 10.5625 -21.671875 Z M 10.5625 -21.671875 "/></g></g></g><g fill="#1b1b1b" fill-opacity="1"><g transform="translate(301.908897, 58.557267)"><g><path d="M 1.5 -8.203125 C 2.101562 -8.804688 2.84375 -9.234375 3.71875 -9.484375 C 4.601562 -9.734375 5.472656 -9.71875 6.328125 -9.4375 C 7.546875 -9.082031 8.484375 -8.359375 9.140625 -7.265625 C 9.804688 -6.171875 9.992188 -5 9.703125 -3.75 C 9.554688 -2.96875 9.195312 -2.242188 8.625 -1.578125 C 8.0625 -0.921875 7.382812 -0.445312 6.59375 -0.15625 C 5.445312 0.226562 4.335938 0.191406 3.265625 -0.265625 C 2.191406 -0.734375 1.34375 -1.46875 0.71875 -2.46875 C 0.09375 -3.46875 -0.109375 -4.554688 0.109375 -5.734375 C 0.316406 -6.734375 0.78125 -7.554688 1.5 -8.203125 Z M 1.5 -8.203125 "/></g></g></g><g clip-path="url(#5f833ec7fc)"><path fill="#1b1b1b" d="M 30.617188 19.476562 C 30.945312 19.664062 31.679688 20.042969 31.972656 20.253906 C 32.105469 20.347656 32.132812 20.601562 32.195312 20.640625 C 32.382812 20.746094 32.738281 20.582031 32.996094 20.734375 C 33.039062 20.761719 33.535156 21.402344 33.605469 21.507812 C 33.6875 21.636719 33.667969 21.890625 33.683594 21.902344 C 33.75 21.96875 34.371094 21.414062 34.714844 22.3125 C 34.78125 22.480469 34.761719 22.84375 34.78125 22.863281 C 34.835938 22.921875 35.410156 22.449219 36.152344 23.34375 C 36.515625 23.785156 37.027344 25.007812 37.289062 25.296875 C 37.414062 25.4375 37.765625 25.421875 37.875 25.609375 C 37.996094 25.820312 37.878906 26.148438 37.957031 26.277344 C 38.011719 26.363281 38.371094 26.324219 38.5 26.527344 C 38.699219 26.835938 38.582031 27.632812 38.625 27.671875 C 38.660156 27.707031 39.152344 27.625 39.355469 27.695312 C 39.59375 27.773438 40.519531 29.753906 40.640625 30.117188 C 40.738281 30.417969 40.773438 31.242188 40.84375 31.355469 C 40.914062 31.460938 41.390625 31.4375 41.492188 31.746094 C 41.601562 32.085938 41.351562 32.363281 41.363281 32.535156 C 41.371094 32.632812 41.648438 32.636719 41.753906 32.84375 C 41.914062 33.160156 41.847656 33.691406 41.957031 34.019531 C 42.15625 34.628906 42.757812 35.429688 42.726562 36.261719 C 42.714844 36.613281 42.316406 36.847656 42.351562 37.054688 C 42.382812 37.238281 42.957031 38.160156 42.980469 38.558594 C 43.003906 38.976562 42.757812 39.84375 42.78125 40.265625 C 42.792969 40.515625 43.078125 40.664062 43.023438 41.050781 C 42.984375 41.34375 42.636719 41.507812 42.636719 41.605469 C 42.636719 41.691406 42.921875 41.871094 42.882812 42.28125 C 42.851562 42.625 42.523438 42.832031 42.492188 43.007812 C 42.457031 43.230469 42.753906 43.421875 42.714844 43.644531 C 42.699219 43.742188 42.273438 44.371094 42.167969 44.605469 C 42.046875 44.871094 42.046875 45.171875 41.902344 45.4375 C 41.707031 45.789062 41.273438 45.90625 41.246094 45.949219 C 41.21875 45.984375 41.511719 46.433594 41.304688 46.761719 C 41.191406 46.945312 40.234375 47.25 40.15625 47.671875 C 40.113281 47.890625 40.5625 48.292969 40.398438 48.734375 C 40.304688 48.988281 39.96875 48.898438 39.890625 48.984375 C 39.765625 49.121094 39.777344 49.976562 39.691406 50.230469 C 39.582031 50.5625 39.203125 50.570312 39.101562 50.742188 C 38.949219 51.003906 39.109375 51.390625 39.015625 51.546875 C 38.972656 51.617188 38.613281 51.632812 38.484375 51.769531 C 38.292969 51.972656 38.382812 52.367188 38.15625 52.542969 C 37.960938 52.699219 37.601562 52.625 37.542969 52.683594 C 37.492188 52.734375 37.539062 53.042969 37.453125 53.207031 C 36.976562 54.117188 36.179688 54.332031 35.480469 54.816406 C 35.273438 54.964844 34.90625 55.5625 34.785156 55.621094 C 34.515625 55.746094 34.058594 55.625 33.972656 55.703125 C 33.917969 55.753906 33.96875 56.070312 33.828125 56.175781 C 33.621094 56.332031 33.121094 56.15625 33.011719 56.253906 C 32.957031 56.304688 33.007812 56.621094 32.867188 56.722656 C 32.660156 56.882812 32.191406 56.703125 32.050781 56.804688 C 31.988281 56.847656 31.980469 57.152344 31.855469 57.296875 C 31.734375 57.4375 30.390625 58.042969 30.214844 57.996094 C 30.078125 57.957031 29.921875 57.714844 29.777344 57.746094 C 29.640625 57.777344 29.464844 58.316406 29.117188 58.46875 C 29.019531 58.507812 27.511719 58.972656 27.421875 58.984375 C 26.914062 59.046875 26.597656 58.824219 25.851562 59.050781 C 25.234375 59.234375 24.398438 59.488281 23.726562 59.542969 C 23.179688 59.585938 22.945312 59.257812 22.902344 59.261719 C 22.804688 59.261719 22.6875 59.652344 22.554688 59.734375 C 22.425781 59.8125 21.71875 59.933594 21.523438 59.945312 C 20.738281 59.980469 20.933594 59.722656 20.117188 59.914062 C 19.324219 60.097656 19.25 59.527344 19.195312 59.527344 C 18.917969 59.535156 18.855469 59.851562 18.613281 59.921875 C 18.507812 59.953125 17.042969 59.921875 16.882812 59.894531 C 16.597656 59.839844 16.375 59.589844 16.144531 59.558594 C 15.925781 59.527344 15.699219 59.695312 15.515625 59.648438 C 15.15625 59.5625 14.042969 58.921875 13.667969 58.871094 C 13.335938 58.824219 13.097656 58.964844 12.808594 58.917969 C 12.394531 58.851562 12.03125 58.429688 11.746094 58.328125 C 11.171875 58.128906 9.617188 58.269531 9.3125 57.738281 C 9.238281 57.609375 9.253906 57.347656 9.238281 57.335938 C 9.113281 57.214844 8.824219 57.601562 8.625 57.605469 C 8.226562 57.621094 7.886719 57.082031 7.582031 56.863281 C 7.402344 56.734375 7.054688 56.734375 6.9375 56.617188 C 6.785156 56.464844 6.820312 56.03125 6.753906 55.976562 C 6.648438 55.890625 6.167969 56.070312 5.929688 55.769531 C 5.730469 55.511719 5.785156 54.570312 5.65625 54.46875 C 5.5625 54.394531 5.1875 54.523438 4.90625 54.324219 C 4.816406 54.261719 4.371094 53.609375 4.269531 53.449219 C 3.828125 52.765625 3.523438 52.046875 3.152344 51.417969 C 2.683594 50.625 2.5625 50.246094 2.296875 49.378906 C 1.949219 48.238281 1.449219 46.945312 1.277344 45.71875 C 1.230469 45.398438 1.464844 45.09375 1.421875 44.773438 C 1.386719 44.527344 1.117188 44.394531 1.011719 44.074219 C 0.964844 43.921875 0.847656 42.339844 0.863281 42.171875 C 0.890625 41.917969 1.144531 41.683594 1.140625 41.46875 C 1.136719 41.25 0.78125 41.085938 0.71875 40.519531 C 0.582031 39.210938 1.199219 39.027344 1.285156 38.445312 C 1.355469 37.964844 0.890625 37.726562 0.855469 37.214844 C 0.8125 36.527344 1.164062 35.238281 1.347656 34.535156 C 1.390625 34.363281 1.605469 34.214844 1.625 34.0625 C 1.664062 33.777344 1.4375 33.355469 1.574219 32.972656 C 1.640625 32.78125 1.949219 32.792969 1.976562 32.660156 C 2.011719 32.46875 1.847656 32.21875 1.867188 32.011719 C 1.886719 31.789062 2.203125 31.382812 2.285156 31.070312 C 2.402344 30.632812 2.136719 30.1875 2.652344 29.800781 C 3.035156 29.507812 3.578125 29.730469 3.472656 28.988281 C 3.441406 28.742188 3.207031 28.515625 3.226562 28.308594 C 3.246094 28.113281 3.5 27.921875 3.578125 27.703125 C 4.097656 26.210938 4.933594 24.921875 6.082031 23.757812 C 6.589844 23.242188 6.667969 23.132812 6.976562 22.597656 C 7.070312 22.4375 7.710938 22.101562 7.925781 21.894531 C 9.074219 20.785156 9.882812 20.15625 11.179688 19.238281 C 12.253906 18.476562 12.007812 19.042969 12.609375 18.980469 C 12.832031 18.957031 12.871094 18.46875 13.214844 18.386719 C 13.46875 18.324219 13.683594 18.457031 13.914062 18.410156 C 14.109375 18.367188 14.304688 18.121094 14.527344 18.113281 C 14.839844 18.097656 15.1875 18.5 15.339844 18.464844 C 15.503906 18.429688 15.710938 17.824219 15.972656 17.707031 C 16.28125 17.574219 16.539062 17.847656 16.832031 17.765625 C 17.027344 17.710938 17.132812 17.390625 17.417969 17.363281 C 17.898438 17.316406 18.027344 17.925781 18.371094 17.921875 C 18.449219 17.921875 18.585938 17.144531 19.3125 17.390625 C 19.589844 17.484375 19.769531 18.433594 20.085938 18.195312 C 20.117188 18.171875 20.136719 17.632812 20.457031 17.527344 C 20.847656 17.394531 21.945312 17.964844 22.5 17.875 C 22.675781 17.847656 22.746094 17.472656 22.894531 17.359375 C 23.179688 17.140625 24.75 17.441406 25.226562 17.519531 C 25.945312 17.636719 26.195312 17.808594 26.808594 17.996094 C 27.132812 18.09375 27.511719 17.996094 27.78125 18.125 C 27.992188 18.226562 28.050781 18.664062 28.28125 18.734375 C 28.539062 18.8125 28.792969 18.582031 29.050781 18.632812 C 29.136719 18.648438 30.394531 19.351562 30.617188 19.476562 Z M 21.566406 21.113281 C 21.46875 21.0625 19.554688 21.304688 19.363281 21.351562 C 19.234375 21.378906 19.199219 21.683594 18.960938 21.800781 C 18.859375 21.851562 17.121094 22.160156 17.019531 22.152344 C 16.871094 22.140625 16.699219 21.929688 16.585938 21.9375 C 16.515625 21.941406 15.667969 22.617188 15.453125 22.691406 C 14.617188 22.984375 14.019531 22.765625 13.230469 22.511719 C 13.125 22.476562 13.035156 22.277344 12.859375 22.21875 C 11.992188 21.941406 11.410156 22.988281 10.871094 23.464844 C 10.746094 23.578125 10.496094 23.597656 10.328125 23.746094 C 10.109375 23.945312 9.957031 24.382812 9.734375 24.523438 C 9.441406 24.707031 9.128906 24.589844 8.992188 24.671875 C 8.789062 24.796875 8.40625 26.082031 8.261719 26.347656 C 8.039062 26.761719 7.515625 26.921875 7.328125 27.210938 C 7.183594 27.433594 7.308594 27.863281 6.964844 28.347656 C 6.652344 28.792969 5.71875 29.164062 5.703125 29.242188 C 5.679688 29.355469 5.96875 30.03125 5.9375 30.464844 C 5.914062 30.75 5.5 31.953125 5.367188 32.242188 C 5.253906 32.484375 4.914062 32.660156 4.878906 32.835938 C 4.839844 33.046875 5.039062 33.605469 4.976562 34.050781 C 4.890625 34.648438 4.664062 35.257812 4.554688 35.964844 C 4.253906 37.996094 4.1875 39.394531 4.296875 41.335938 C 4.527344 45.351562 5.523438 49.730469 8.140625 52.832031 C 8.273438 52.988281 9.808594 54.335938 9.921875 54.375 C 10.234375 54.492188 11.089844 54.558594 11.570312 54.796875 C 11.804688 54.917969 12.046875 55.289062 12.386719 55.34375 C 12.65625 55.386719 12.851562 55.144531 13.195312 55.226562 C 13.605469 55.324219 13.757812 55.726562 14.003906 55.796875 C 14.578125 55.964844 15.621094 56.085938 16.183594 56.089844 C 16.488281 56.089844 16.636719 56.347656 16.855469 56.359375 C 17.042969 56.367188 17.238281 56.207031 17.515625 56.253906 C 17.9375 56.324219 18.152344 56.878906 18.511719 56.929688 C 18.8125 56.972656 18.671875 56.578125 19.054688 56.503906 C 19.453125 56.429688 19.863281 56.644531 20.132812 56.605469 C 21.070312 56.472656 22.210938 56.382812 23.171875 56.230469 C 23.683594 56.144531 24.480469 55.800781 24.851562 55.707031 C 25.078125 55.652344 25.941406 55.867188 26.175781 55.832031 C 26.316406 55.808594 26.316406 55.464844 26.542969 55.34375 C 26.890625 55.15625 27.632812 55.203125 28.054688 55.070312 C 28.550781 54.910156 29.054688 54.371094 29.582031 54.125 C 30.921875 53.496094 30.945312 53.566406 32.097656 52.660156 C 32.484375 52.351562 33.566406 51.960938 33.820312 51.773438 C 33.964844 51.660156 33.929688 51.382812 34.101562 51.230469 C 34.234375 51.113281 35.128906 50.628906 35.164062 50.578125 C 35.238281 50.476562 35.226562 50.0625 35.316406 49.839844 C 35.640625 49.074219 36.214844 49.300781 36.289062 49.230469 C 36.402344 49.113281 36.152344 48.53125 36.183594 48.355469 C 36.257812 47.921875 36.945312 48.027344 36.976562 47.996094 C 37.039062 47.9375 36.761719 47.15625 36.835938 46.855469 C 36.878906 46.671875 37.449219 46.613281 37.574219 46.308594 C 37.734375 45.917969 37.464844 45.648438 37.542969 45.347656 C 37.632812 45.003906 38.625 44.164062 38.703125 44.011719 C 38.8125 43.800781 38.636719 43.5625 38.683594 43.324219 C 38.742188 43.039062 39.105469 42.746094 39.15625 42.535156 C 39.21875 42.273438 38.90625 42.078125 38.886719 41.75 C 38.867188 41.464844 39.027344 41.195312 39.039062 40.914062 C 39.066406 40.351562 38.679688 40.050781 39.449219 39.6875 C 39.539062 39.394531 39.179688 39.492188 39.023438 39.289062 C 38.667969 38.828125 39.21875 38.433594 39.1875 37.898438 C 39.160156 37.363281 38.820312 37.488281 38.691406 37.285156 C 38.636719 37.191406 38.332031 35.3125 38.339844 35.15625 C 38.355469 34.824219 38.625 34.503906 38.621094 34.46875 C 38.605469 34.300781 38.097656 34.273438 38 34.128906 C 37.894531 33.972656 37.976562 33.695312 37.902344 33.539062 C 37.421875 32.488281 36.582031 31.15625 36.1875 30.175781 C 36.050781 29.824219 35.753906 28.238281 35.613281 28.144531 C 35.425781 28.019531 35.046875 28.148438 34.703125 27.953125 C 34.644531 27.921875 34.050781 27.308594 34.027344 27.257812 C 33.90625 26.988281 34.027344 26.488281 33.828125 26.355469 C 33.613281 26.214844 33.160156 26.375 32.855469 26.230469 C 32.574219 26.097656 32.5625 25.660156 32.410156 25.507812 C 32.265625 25.367188 31.898438 25.335938 31.707031 25.175781 C 31.503906 25.015625 31.003906 24.34375 30.898438 24.273438 C 30.457031 23.996094 29.796875 24.195312 29.972656 23.136719 C 29.070312 23.78125 29.007812 23.234375 28.453125 22.941406 C 28.054688 22.730469 27.40625 22.542969 27.015625 22.320312 C 26.78125 22.191406 26.253906 21.652344 26.179688 21.640625 C 26.011719 21.613281 25.851562 21.898438 25.648438 21.902344 C 25.410156 21.910156 25.183594 21.539062 24.941406 21.515625 C 24.699219 21.496094 24.5 21.800781 24.167969 21.746094 C 23.925781 21.707031 23.710938 21.390625 23.566406 21.371094 C 23.398438 21.351562 23.257812 21.601562 23.046875 21.613281 C 22.335938 21.667969 21.980469 21.320312 21.566406 21.109375 Z M 21.566406 21.113281 " fill-opacity="1" fill-rule="nonzero"/></g><path fill="#1b1b1b" d="M 31.925781 40.414062 C 32.082031 40.523438 32.613281 40.421875 32.789062 40.714844 C 33.003906 41.074219 32.746094 41.472656 32.78125 41.75 C 32.804688 41.914062 33.023438 42.058594 33.078125 42.226562 C 33.128906 42.382812 32.871094 43.222656 32.789062 43.464844 C 32.566406 44.09375 32.015625 45.179688 31.695312 45.660156 C 31.582031 45.824219 31.210938 45.800781 31.058594 45.992188 C 30.917969 46.171875 30.976562 46.460938 30.792969 46.6875 C 30.421875 47.15625 28.414062 48.773438 27.878906 48.992188 C 27.632812 49.09375 27.175781 49.0625 27.113281 49.117188 C 27.054688 49.164062 27.089844 49.472656 26.894531 49.652344 C 26.847656 49.691406 25.90625 50.242188 25.847656 50.261719 C 25.476562 50.390625 25.121094 50.152344 25.050781 50.203125 C 24.996094 50.242188 24.960938 50.554688 24.671875 50.726562 C 24.492188 50.835938 23.363281 51.144531 23.160156 51.152344 C 22.859375 51.160156 22.554688 50.796875 22.429688 50.886719 C 22.414062 50.898438 22.394531 51.113281 22.28125 51.214844 C 21.742188 51.691406 21.472656 51.0625 21.117188 51.066406 C 20.910156 51.070312 20.714844 51.378906 20.324219 51.273438 C 20.085938 51.207031 19.921875 50.796875 19.726562 50.761719 C 19.535156 50.726562 19.363281 50.964844 19.195312 50.96875 C 19.121094 50.96875 17.847656 50.621094 17.714844 50.574219 C 17.285156 50.425781 17.273438 49.855469 17.183594 49.800781 C 17 49.6875 15.914062 49.765625 15.339844 49.238281 C 14.898438 48.832031 15.351562 49.050781 14.605469 48.609375 C 14.113281 48.320312 13.941406 47.515625 13.894531 47.460938 C 13.832031 47.398438 13.414062 47.511719 13.210938 47.253906 C 13.074219 47.082031 13.113281 46.800781 13.011719 46.628906 C 12.738281 46.160156 11.878906 45.417969 11.519531 44.6875 C 11.433594 44.515625 10.917969 43.1875 10.910156 43.085938 C 10.894531 42.917969 11.140625 42.339844 11.242188 42.238281 C 11.382812 42.089844 11.585938 42.101562 11.699219 42.007812 C 11.925781 41.820312 11.914062 41.449219 12.308594 41.554688 C 12.585938 41.628906 12.640625 42.046875 12.6875 42.074219 C 12.722656 42.09375 12.960938 41.949219 13.121094 41.976562 C 13.75 42.097656 13.757812 42.828125 14.042969 43.226562 C 14.152344 43.386719 14.476562 43.765625 14.640625 43.96875 C 14.917969 44.320312 15.308594 44.125 15.007812 44.972656 C 16.03125 44.746094 15.714844 45.511719 15.847656 45.644531 C 15.886719 45.683594 16.242188 45.652344 16.460938 45.789062 C 16.777344 45.988281 16.800781 46.566406 17.066406 46.695312 C 17.265625 46.792969 17.5 46.710938 17.652344 46.761719 C 17.703125 46.78125 18.277344 47.113281 18.574219 47.246094 C 18.832031 47.359375 19.078125 47.898438 19.363281 47.976562 C 19.742188 48.078125 20.015625 47.777344 20.3125 47.765625 C 20.765625 47.746094 21.664062 47.992188 22.082031 47.933594 C 22.265625 47.90625 22.429688 47.640625 22.65625 47.605469 C 23.207031 47.523438 22.816406 47.765625 23.347656 47.449219 C 23.839844 47.160156 24.675781 47.058594 24.738281 47.015625 C 24.816406 46.964844 24.800781 46.636719 24.921875 46.515625 C 25.027344 46.414062 25.84375 46.152344 26.113281 45.992188 C 26.316406 45.871094 26.773438 45.597656 26.925781 45.496094 C 27.023438 45.433594 26.980469 45.144531 27.1875 44.96875 C 27.222656 44.9375 27.839844 44.59375 27.878906 44.585938 C 28.078125 44.546875 28.421875 44.746094 28.460938 44.699219 C 28.480469 44.679688 28.441406 44.335938 28.535156 44.15625 C 28.617188 43.996094 28.851562 43.894531 28.933594 43.730469 C 29.292969 43.003906 29.585938 40.898438 29.871094 40.617188 C 29.984375 40.507812 30.234375 40.503906 30.378906 40.367188 C 30.621094 40.136719 30.746094 39.648438 31.148438 39.613281 C 31.773438 39.554688 31.757812 40.292969 31.925781 40.414062 Z M 31.925781 40.414062 " fill-opacity="1" fill-rule="nonzero"/><path fill="#1b1b1b" d="M 23.675781 28.613281 C 23.75 28.726562 24.457031 28.691406 24.59375 29.144531 C 24.628906 29.269531 24.535156 29.449219 24.5625 29.605469 C 24.953125 31.804688 24.859375 33.949219 25.175781 36.109375 C 25.210938 36.355469 25.449219 36.503906 25.457031 36.800781 C 25.46875 37.363281 25.011719 37.308594 24.925781 37.453125 C 24.792969 37.671875 24.972656 38.320312 24.535156 38.507812 C 23.902344 38.0625 22.632812 38.207031 22.320312 37.453125 C 21.800781 36.1875 22.042969 35.308594 21.957031 34.082031 C 21.910156 33.386719 21.589844 32.332031 21.617188 31.714844 C 21.625 31.457031 21.863281 31.269531 21.863281 31.035156 C 21.871094 30.734375 21.34375 30.03125 21.328125 29.503906 C 21.316406 29.070312 21.660156 29.035156 21.714844 28.8125 C 21.785156 28.542969 21.347656 27.972656 21.824219 27.828125 C 22.046875 27.761719 22.339844 27.847656 22.59375 27.777344 C 22.820312 27.714844 23.050781 27.371094 23.296875 27.414062 C 23.84375 27.515625 23.5625 28.449219 23.675781 28.613281 Z M 23.675781 28.613281 " fill-opacity="1" fill-rule="nonzero"/><path fill="#1b1b1b" d="M 15.164062 27.417969 C 15.769531 27.035156 17.15625 28.34375 17.207031 28.839844 C 17.242188 29.171875 16.929688 29.5 16.964844 29.777344 C 16.984375 29.953125 17.1875 30.132812 17.203125 30.363281 C 17.277344 31.605469 17.207031 32.828125 17.257812 34.035156 C 17.300781 35.128906 17.59375 36.726562 17.46875 37.753906 C 17.351562 38.734375 15.90625 38.800781 15.285156 38.171875 C 15.253906 38.140625 14.824219 37.457031 14.808594 37.414062 C 14.539062 36.722656 14.394531 32.949219 14.453125 32.128906 C 14.476562 31.8125 14.726562 31.523438 14.707031 31.332031 C 14.683594 31.105469 14.382812 30.917969 14.347656 30.730469 C 14.265625 30.328125 14.585938 29.222656 14.574219 29.140625 C 14.554688 29.019531 14.316406 28.875 14.3125 28.695312 C 14.304688 28.421875 14.6875 28.363281 14.851562 28.132812 C 14.96875 27.96875 15.121094 27.445312 15.164062 27.417969 Z M 15.164062 27.417969 " fill-opacity="1" fill-rule="nonzero"/></svg>