<svg xmlns="http://www.w3.org/2000/svg" xmlns:xlink="http://www.w3.org/1999/xlink" width="500" zoomAndPan="magnify" viewBox="0 0 375 374.999991" height="500" preserveAspectRatio="xMidYMid meet" version="1.0"><defs><clipPath id="b59d1a073f"><path d="M 21 19 L 354.796875 19 L 354.796875 356 L 21 356 Z M 21 19 " clip-rule="nonzero"/></clipPath></defs><g clip-path="url(#b59d1a073f)"><path fill="#1b1b1b" d="M 256.535156 37.125 C 259.136719 38.589844 264.902344 41.574219 267.1875 43.214844 C 268.234375 43.964844 268.464844 45.964844 268.957031 46.246094 C 270.410156 47.078125 273.195312 45.8125 275.230469 47.003906 C 275.5625 47.199219 279.480469 52.246094 280.011719 53.058594 C 280.683594 54.097656 280.515625 56.074219 280.628906 56.1875 C 281.144531 56.703125 286.039062 52.332031 288.753906 59.382812 C 289.265625 60.71875 289.105469 63.574219 289.257812 63.734375 C 289.679688 64.191406 294.195312 60.476562 300.035156 67.511719 C 302.90625 70.96875 306.914062 80.5625 308.964844 82.847656 C 309.953125 83.945312 312.710938 83.835938 313.558594 85.289062 C 314.53125 86.957031 313.589844 89.539062 314.21875 90.554688 C 314.640625 91.238281 317.457031 90.933594 318.476562 92.5 C 320.054688 94.933594 319.128906 101.191406 319.449219 101.507812 C 319.726562 101.777344 323.617188 101.144531 325.210938 101.679688 C 327.0625 102.300781 334.347656 117.878906 335.292969 120.730469 C 336.070312 123.078125 336.34375 129.570312 336.914062 130.4375 C 337.464844 131.277344 341.195312 131.101562 341.988281 133.523438 C 342.855469 136.183594 340.886719 138.378906 340.992188 139.71875 C 341.054688 140.496094 343.222656 140.535156 344.046875 142.15625 C 345.308594 144.636719 344.789062 148.796875 345.644531 151.382812 C 347.21875 156.160156 351.941406 162.453125 351.695312 168.988281 C 351.59375 171.769531 348.476562 173.59375 348.742188 175.226562 C 348.984375 176.6875 353.496094 183.910156 353.683594 187.054688 C 353.875 190.335938 351.953125 197.160156 352.109375 200.472656 C 352.203125 202.4375 354.460938 203.59375 354.035156 206.644531 C 353.71875 208.945312 350.972656 210.230469 350.984375 211 C 350.996094 211.667969 353.238281 213.082031 352.921875 216.316406 C 352.660156 219.003906 350.09375 220.621094 349.863281 222.007812 C 349.574219 223.75 351.90625 225.269531 351.613281 227.019531 C 351.488281 227.777344 348.136719 232.726562 347.296875 234.558594 C 346.347656 236.640625 346.355469 239.027344 345.207031 241.097656 C 343.671875 243.859375 340.269531 244.796875 340.046875 245.128906 C 339.859375 245.402344 342.140625 248.921875 340.523438 251.511719 C 339.625 252.949219 332.109375 255.339844 331.484375 258.664062 C 331.164062 260.367188 334.679688 263.539062 333.386719 267.015625 C 332.648438 269.003906 330.019531 268.300781 329.394531 268.980469 C 328.421875 270.042969 328.527344 276.753906 327.851562 278.773438 C 326.980469 281.371094 324.015625 281.425781 323.226562 282.777344 C 322.015625 284.832031 323.285156 287.875 322.535156 289.105469 C 322.195312 289.664062 319.363281 289.773438 318.359375 290.847656 C 316.859375 292.449219 317.578125 295.542969 315.796875 296.9375 C 314.246094 298.148438 311.410156 297.570312 310.957031 298.027344 C 310.554688 298.4375 310.9375 300.859375 310.261719 302.148438 C 306.5 309.292969 300.238281 311 294.773438 314.800781 C 293.117188 315.953125 290.246094 320.652344 289.28125 321.109375 C 287.175781 322.113281 283.597656 321.164062 282.90625 321.777344 C 282.46875 322.167969 282.867188 324.652344 281.785156 325.472656 C 280.144531 326.714844 276.214844 325.3125 275.355469 326.09375 C 274.917969 326.492188 275.316406 328.972656 274.230469 329.789062 C 272.597656 331.019531 268.917969 329.628906 267.804688 330.40625 C 267.304688 330.757812 267.269531 333.140625 266.285156 334.277344 C 265.316406 335.402344 254.757812 340.160156 253.394531 339.777344 C 252.308594 339.476562 251.082031 337.574219 249.9375 337.828125 C 248.863281 338.066406 247.480469 342.308594 244.746094 343.484375 C 243.992188 343.808594 232.136719 347.449219 231.4375 347.535156 C 227.445312 348.027344 224.953125 346.289062 219.101562 348.054688 C 214.253906 349.519531 207.683594 351.507812 202.386719 351.925781 C 198.089844 352.265625 196.273438 349.703125 195.917969 349.710938 C 195.144531 349.730469 194.222656 352.796875 193.195312 353.429688 C 192.167969 354.066406 186.621094 355.011719 185.097656 355.082031 C 178.929688 355.363281 180.453125 353.363281 174.054688 354.84375 C 167.820312 356.289062 167.226562 351.820312 166.789062 351.828125 C 164.625 351.863281 164.121094 354.355469 162.21875 354.910156 C 161.378906 355.15625 149.878906 354.929688 148.628906 354.6875 C 146.371094 354.257812 144.632812 352.289062 142.832031 352.046875 C 141.113281 351.8125 139.332031 353.132812 137.875 352.773438 C 135.050781 352.078125 126.304688 347.070312 123.355469 346.648438 C 120.757812 346.273438 118.882812 347.394531 116.621094 347.03125 C 113.347656 346.507812 110.503906 343.175781 108.277344 342.398438 C 103.742188 340.816406 91.542969 341.917969 89.152344 337.746094 C 88.566406 336.726562 88.6875 334.691406 88.570312 334.582031 C 87.578125 333.632812 85.292969 336.667969 83.75 336.722656 C 80.601562 336.839844 77.929688 332.585938 75.554688 330.882812 C 74.144531 329.871094 71.398438 329.882812 70.476562 328.957031 C 69.28125 327.75 69.554688 324.339844 69.03125 323.917969 C 68.199219 323.246094 64.417969 324.664062 62.574219 322.285156 C 61 320.25 61.421875 312.859375 60.398438 312.054688 C 59.671875 311.484375 56.738281 312.496094 54.511719 310.925781 C 53.828125 310.449219 50.316406 305.308594 49.515625 304.0625 C 46.042969 298.691406 43.660156 293.042969 40.726562 288.078125 C 37.042969 281.847656 36.09375 278.898438 34.023438 272.082031 C 31.296875 263.117188 27.339844 252.9375 26 243.316406 C 25.644531 240.789062 27.464844 238.386719 27.128906 235.894531 C 26.867188 233.960938 24.734375 232.90625 23.921875 230.382812 C 23.535156 229.179688 22.628906 216.761719 22.757812 215.433594 C 22.953125 213.4375 24.960938 211.621094 24.925781 209.917969 C 24.886719 208.195312 22.09375 206.917969 21.628906 202.46875 C 20.554688 192.175781 25.382812 190.734375 26.054688 186.148438 C 26.605469 182.386719 22.960938 180.519531 22.695312 176.476562 C 22.339844 171.09375 25.109375 160.964844 26.546875 155.449219 C 26.90625 154.074219 28.59375 152.910156 28.75 151.710938 C 29.039062 149.496094 27.269531 146.167969 28.324219 143.167969 C 28.859375 141.65625 31.285156 141.75 31.488281 140.699219 C 31.773438 139.199219 30.472656 137.25 30.625 135.621094 C 30.792969 133.847656 33.285156 130.664062 33.929688 128.21875 C 34.839844 124.765625 32.769531 121.265625 36.796875 118.226562 C 39.824219 115.945312 44.078125 117.683594 43.265625 111.84375 C 43 109.925781 41.160156 108.132812 41.316406 106.523438 C 41.46875 104.984375 43.472656 103.480469 44.070312 101.761719 C 48.152344 90.042969 54.746094 79.914062 63.769531 70.746094 C 67.738281 66.714844 68.351562 65.859375 70.800781 61.628906 C 71.527344 60.371094 76.554688 57.753906 78.257812 56.105469 C 87.273438 47.390625 93.636719 42.464844 103.800781 35.253906 C 112.242188 29.261719 110.324219 33.699219 115.046875 33.214844 C 116.8125 33.03125 117.089844 29.179688 119.8125 28.542969 C 121.8125 28.070312 123.5 29.109375 125.289062 28.726562 C 126.824219 28.394531 128.378906 26.476562 130.109375 26.398438 C 132.5625 26.292969 135.296875 29.449219 136.507812 29.175781 C 137.785156 28.886719 139.410156 24.117188 141.484375 23.21875 C 143.90625 22.167969 145.929688 24.316406 148.226562 23.671875 C 149.773438 23.238281 150.597656 20.734375 152.824219 20.507812 C 156.617188 20.128906 157.625 24.921875 160.316406 24.902344 C 160.921875 24.898438 161.996094 18.792969 167.703125 20.714844 C 169.886719 21.449219 171.296875 28.90625 173.800781 27.042969 C 174.046875 26.859375 174.203125 22.617188 176.699219 21.789062 C 179.785156 20.765625 188.390625 25.242188 192.765625 24.53125 C 194.144531 24.308594 194.710938 21.363281 195.847656 20.488281 C 198.097656 18.753906 210.433594 21.125 214.203125 21.746094 C 219.832031 22.671875 221.792969 24.015625 226.621094 25.484375 C 229.160156 26.257812 232.136719 25.46875 234.25 26.488281 C 235.929688 27.300781 236.390625 30.71875 238.1875 31.269531 C 240.222656 31.886719 242.199219 30.09375 244.230469 30.488281 C 244.914062 30.621094 254.78125 36.136719 256.539062 37.125 Z M 185.441406 49.960938 C 184.660156 49.566406 169.613281 51.488281 168.101562 51.84375 C 167.109375 52.078125 166.820312 54.460938 164.945312 55.382812 C 164.152344 55.777344 150.484375 58.199219 149.699219 58.136719 C 148.523438 58.039062 147.195312 56.40625 146.289062 56.457031 C 145.738281 56.488281 139.09375 61.804688 137.40625 62.390625 C 130.832031 64.667969 126.125 62.957031 119.929688 60.964844 C 119.085938 60.695312 118.40625 59.125 117.015625 58.675781 C 110.191406 56.480469 105.625 64.722656 101.402344 68.460938 C 100.394531 69.351562 98.449219 69.484375 97.132812 70.667969 C 95.394531 72.226562 94.203125 75.660156 92.445312 76.765625 C 90.15625 78.203125 87.6875 77.289062 86.613281 77.949219 C 85.03125 78.921875 82.027344 89.011719 80.886719 91.105469 C 79.121094 94.347656 75.015625 95.613281 73.542969 97.882812 C 72.402344 99.640625 73.398438 103.019531 70.703125 106.824219 C 68.230469 110.308594 60.890625 113.222656 60.769531 113.855469 C 60.605469 114.738281 62.859375 120.042969 62.613281 123.460938 C 62.453125 125.679688 59.199219 135.15625 58.140625 137.414062 C 57.253906 139.316406 54.574219 140.710938 54.304688 142.085938 C 53.984375 143.734375 55.578125 148.136719 55.074219 151.617188 C 54.394531 156.339844 52.601562 161.109375 51.773438 166.65625 C 49.382812 182.625 48.859375 193.617188 49.730469 208.882812 C 51.53125 240.433594 59.378906 274.839844 79.945312 299.207031 C 80.984375 300.433594 93.050781 311.007812 93.917969 311.332031 C 96.371094 312.246094 103.121094 312.757812 106.878906 314.652344 C 108.734375 315.585938 110.628906 318.5 113.292969 318.933594 C 115.417969 319.28125 116.960938 317.367188 119.660156 318.015625 C 122.886719 318.792969 124.066406 321.933594 126.011719 322.5 C 130.519531 323.808594 138.722656 324.765625 143.121094 324.792969 C 145.539062 324.808594 146.679688 326.828125 148.398438 326.917969 C 149.878906 326.996094 151.429688 325.738281 153.597656 326.101562 C 156.914062 326.65625 158.609375 330.992188 161.429688 331.398438 C 163.792969 331.742188 162.679688 328.636719 165.691406 328.070312 C 168.824219 327.484375 172.03125 329.164062 174.175781 328.855469 C 181.515625 327.808594 190.496094 327.117188 198.03125 325.898438 C 202.070312 325.246094 208.324219 322.519531 211.242188 321.796875 C 213.023438 321.359375 219.796875 323.050781 221.644531 322.773438 C 222.761719 322.601562 222.753906 319.898438 224.519531 318.949219 C 227.253906 317.476562 233.097656 317.84375 236.402344 316.792969 C 240.320312 315.546875 244.261719 311.308594 248.398438 309.367188 C 258.949219 304.410156 259.128906 304.988281 268.164062 297.851562 C 271.21875 295.433594 279.730469 292.371094 281.699219 290.878906 C 282.839844 290.011719 282.566406 287.824219 283.914062 286.621094 C 284.960938 285.691406 291.984375 281.890625 292.273438 281.492188 C 292.851562 280.691406 292.753906 277.433594 293.484375 275.691406 C 296.003906 269.675781 300.515625 271.46875 301.101562 270.890625 C 302.007812 270 300.046875 265.421875 300.285156 264.023438 C 300.859375 260.625 306.257812 261.441406 306.519531 261.195312 C 306.992188 260.746094 304.816406 254.59375 305.398438 252.257812 C 305.757812 250.796875 310.230469 250.34375 311.214844 247.960938 C 312.480469 244.886719 310.351562 242.765625 310.964844 240.390625 C 311.664062 237.703125 319.449219 231.105469 320.078125 229.898438 C 320.9375 228.242188 319.542969 226.378906 319.933594 224.484375 C 320.394531 222.257812 323.230469 219.960938 323.625 218.308594 C 324.121094 216.234375 321.671875 214.695312 321.507812 212.117188 C 321.367188 209.882812 322.636719 207.761719 322.734375 205.574219 C 322.929688 201.128906 319.886719 198.761719 325.925781 195.90625 C 326.660156 193.613281 323.832031 194.378906 322.609375 192.792969 C 319.816406 189.167969 324.117188 186.082031 323.886719 181.875 C 323.65625 177.671875 320.992188 178.632812 319.992188 177.035156 C 319.542969 176.316406 317.171875 161.539062 317.230469 160.316406 C 317.351562 157.699219 319.457031 155.195312 319.433594 154.90625 C 319.324219 153.589844 315.320312 153.378906 314.566406 152.25 C 313.738281 151.003906 314.359375 148.851562 313.796875 147.625 C 310 139.34375 303.402344 128.902344 300.328125 121.171875 C 299.238281 118.4375 296.894531 105.949219 295.789062 105.207031 C 294.339844 104.238281 291.347656 105.242188 288.644531 103.722656 C 288.183594 103.464844 283.515625 98.667969 283.332031 98.246094 C 282.398438 96.125 283.328125 92.195312 281.773438 91.167969 C 280.09375 90.058594 276.527344 91.304688 274.136719 90.179688 C 271.921875 89.136719 271.816406 85.707031 270.625 84.515625 C 269.496094 83.390625 266.609375 83.140625 265.09375 81.902344 C 263.527344 80.625 259.589844 75.351562 258.742188 74.816406 C 255.277344 72.613281 250.109375 74.195312 251.476562 65.886719 C 244.378906 70.933594 243.882812 66.648438 239.542969 64.347656 C 236.410156 62.691406 231.324219 61.199219 228.238281 59.46875 C 226.398438 58.4375 222.253906 54.199219 221.675781 54.109375 C 220.34375 53.902344 219.085938 56.144531 217.503906 56.183594 C 215.625 56.230469 213.847656 53.316406 211.945312 53.144531 C 210.03125 52.96875 208.476562 55.363281 205.875 54.945312 C 203.953125 54.636719 202.289062 52.164062 201.136719 52.011719 C 199.816406 51.839844 198.71875 53.800781 197.070312 53.917969 C 191.464844 54.324219 188.6875 51.601562 185.441406 49.957031 Z M 185.441406 49.960938 " fill-opacity="1" fill-rule="nonzero"/></g><path fill="#1b1b1b" d="M 266.832031 201.621094 C 268.0625 202.488281 272.242188 201.679688 273.617188 203.996094 C 275.300781 206.820312 273.273438 209.964844 273.558594 212.140625 C 273.722656 213.40625 275.4375 214.546875 275.871094 215.859375 C 276.277344 217.089844 274.265625 223.707031 273.605469 225.589844 C 271.863281 230.558594 267.546875 239.070312 265 242.851562 C 264.128906 244.148438 261.207031 243.964844 260.023438 245.457031 C 258.902344 246.863281 259.355469 249.140625 257.9375 250.925781 C 254.996094 254.621094 239.230469 267.300781 235.042969 269.03125 C 233.085938 269.839844 229.496094 269.589844 229.003906 270.011719 C 228.5625 270.386719 228.839844 272.792969 227.289062 274.21875 C 226.941406 274.539062 219.511719 278.859375 219.0625 279.019531 C 216.152344 280.03125 213.347656 278.160156 212.796875 278.554688 C 212.375 278.855469 212.113281 281.300781 209.835938 282.667969 C 208.414062 283.519531 199.558594 285.960938 197.9375 286.003906 C 195.582031 286.066406 193.183594 283.207031 192.210938 283.90625 C 192.078125 284.003906 191.941406 285.710938 191.050781 286.496094 C 186.796875 290.246094 184.691406 285.300781 181.902344 285.332031 C 180.273438 285.351562 178.722656 287.78125 175.664062 286.953125 C 173.785156 286.445312 172.492188 283.203125 170.960938 282.9375 C 169.46875 282.675781 168.105469 284.527344 166.804688 284.558594 C 166.199219 284.578125 156.21875 281.835938 155.171875 281.46875 C 151.800781 280.289062 151.695312 275.828125 150.996094 275.398438 C 149.535156 274.503906 141.011719 275.117188 136.515625 270.980469 C 133.042969 267.789062 136.582031 269.492188 130.71875 266.035156 C 126.859375 263.761719 125.519531 257.417969 125.136719 257.015625 C 124.648438 256.496094 121.359375 257.410156 119.765625 255.371094 C 118.714844 254.023438 118.992188 251.800781 118.203125 250.460938 C 116.054688 246.792969 109.300781 240.953125 106.484375 235.207031 C 105.816406 233.847656 101.765625 223.421875 101.6875 222.621094 C 101.558594 221.300781 103.515625 216.773438 104.292969 215.953125 C 105.398438 214.785156 107.011719 214.882812 107.890625 214.15625 C 109.683594 212.671875 109.597656 209.769531 112.691406 210.59375 C 114.871094 211.171875 115.296875 214.445312 115.671875 214.679688 C 115.933594 214.839844 117.804688 213.683594 119.070312 213.921875 C 124.023438 214.847656 124.082031 220.589844 126.300781 223.730469 C 127.183594 224.980469 129.726562 227.960938 131 229.566406 C 133.175781 232.308594 136.257812 230.785156 133.890625 237.460938 C 141.929688 235.679688 139.4375 241.679688 140.488281 242.738281 C 140.792969 243.046875 143.605469 242.792969 145.296875 243.851562 C 147.796875 245.417969 147.980469 249.964844 150.058594 250.984375 C 151.628906 251.757812 153.472656 251.109375 154.660156 251.511719 C 155.070312 251.648438 159.578125 254.265625 161.910156 255.304688 C 163.9375 256.207031 165.890625 260.445312 168.117188 261.046875 C 171.105469 261.851562 173.246094 259.488281 175.566406 259.386719 C 179.140625 259.230469 186.179688 261.175781 189.484375 260.714844 C 190.917969 260.511719 192.222656 258.402344 193.992188 258.132812 C 198.304688 257.484375 195.25 259.386719 199.414062 256.921875 C 203.296875 254.625 209.867188 253.839844 210.355469 253.511719 C 210.964844 253.101562 210.847656 250.515625 211.804688 249.578125 C 212.628906 248.769531 219.046875 246.714844 221.167969 245.449219 C 222.757812 244.496094 226.335938 242.375 227.542969 241.578125 C 228.304688 241.074219 227.957031 238.785156 229.601562 237.402344 C 229.878906 237.167969 234.722656 234.484375 235.023438 234.421875 C 236.582031 234.101562 239.296875 235.667969 239.613281 235.316406 C 239.757812 235.15625 239.453125 232.453125 240.179688 231.027344 C 240.828125 229.761719 242.683594 228.992188 243.324219 227.683594 C 246.132812 221.976562 248.4375 205.421875 250.691406 203.222656 C 251.578125 202.355469 253.542969 202.324219 254.65625 201.273438 C 256.582031 199.460938 257.550781 195.628906 260.714844 195.332031 C 265.636719 194.871094 265.5 200.683594 266.832031 201.625 Z M 266.832031 201.621094 " fill-opacity="1" fill-rule="nonzero"/><path fill="#1b1b1b" d="M 201.996094 108.917969 C 202.59375 109.789062 208.144531 109.527344 209.203125 113.070312 C 209.496094 114.050781 208.746094 115.472656 208.964844 116.699219 C 212.035156 133.984375 211.308594 150.839844 213.777344 167.800781 C 214.0625 169.734375 215.949219 170.898438 216 173.246094 C 216.097656 177.648438 212.488281 177.21875 211.816406 178.351562 C 210.792969 180.078125 212.191406 185.191406 208.761719 186.660156 C 203.777344 183.140625 193.792969 184.273438 191.359375 178.367188 C 187.261719 168.425781 189.164062 161.503906 188.503906 151.863281 C 188.128906 146.40625 185.597656 138.140625 185.8125 133.273438 C 185.902344 131.242188 187.746094 129.792969 187.773438 127.9375 C 187.808594 125.582031 183.667969 120.050781 183.550781 115.910156 C 183.457031 112.496094 186.160156 112.21875 186.605469 110.464844 C 187.136719 108.355469 183.722656 103.878906 187.460938 102.742188 C 189.203125 102.210938 191.511719 102.878906 193.511719 102.324219 C 195.289062 101.832031 197.105469 99.140625 199.011719 99.488281 C 203.328125 100.28125 201.101562 107.625 201.996094 108.921875 Z M 201.996094 108.917969 " fill-opacity="1" fill-rule="nonzero"/><path fill="#1b1b1b" d="M 135.128906 99.503906 C 139.890625 96.5 150.773438 106.78125 151.175781 110.695312 C 151.441406 113.296875 149.007812 115.863281 149.265625 118.058594 C 149.429688 119.441406 151.015625 120.832031 151.128906 122.664062 C 151.730469 132.402344 151.179688 142.03125 151.558594 151.496094 C 151.902344 160.105469 154.207031 172.652344 153.230469 180.730469 C 152.300781 188.417969 140.964844 188.949219 136.085938 184.015625 C 135.839844 183.765625 132.449219 178.398438 132.320312 178.070312 C 130.199219 172.613281 129.078125 142.984375 129.539062 136.539062 C 129.71875 134.035156 131.679688 131.773438 131.527344 130.261719 C 131.347656 128.476562 128.996094 127.019531 128.695312 125.535156 C 128.0625 122.367188 130.589844 113.683594 130.488281 113.039062 C 130.339844 112.109375 128.476562 110.976562 128.4375 109.5625 C 128.378906 107.398438 131.386719 106.941406 132.667969 105.136719 C 133.589844 103.839844 134.789062 99.71875 135.128906 99.503906 Z M 135.128906 99.503906 " fill-opacity="1" fill-rule="nonzero"/></svg>